<?xml version="1.0" encoding="UTF-8"?>
<svg id="_圖層_1" data-name=" 圖層 1" xmlns="http://www.w3.org/2000/svg" viewBox="0 0 300 102">
  <defs>
    <style>
      .cls-1 {
        fill: none;
      }

      .cls-1, .cls-2 {
        stroke-width: 0px;
      }

      .cls-2 {
        fill: #333;
      }
    </style>
  </defs>
  <g>
    <path class="cls-2" d="m153.53,64.75c.38,0,.69.11.93.33.24.22.36.5.36.84v1.64h7.8c.34.02.62.16.85.41.23.25.35.55.35.88v3.85c0,.34-.12.62-.35.84s-.52.33-.85.33h-7.8v1.89h9.25c.34.02.62.16.85.41.23.25.35.55.35.88v3.85c0,.34-.12.62-.35.84s-.52.33-.85.33h-7.1c1.33,2.19,3.24,3.3,5.74,3.35h1.77c.38,0,.71.13.98.38.27.25.41.57.41.95v3.98c0,.46-.14.81-.41,1.04s-.6.35-.98.35h-1.77c-2.95,0-5.58-1.72-7.89-5.15v5.08c0,.34-.12.62-.36.84-.24.22-.55.33-.93.33h-3.95c-.38,0-.68-.11-.9-.33-.22-.22-.34-.5-.36-.84v-5.02c-2.48,3.39-5.14,5.08-7.96,5.08h-1.86c-.34-.02-.62-.14-.85-.35s-.35-.48-.35-.82v-4.36c0-.34.12-.61.35-.82s.52-.33.85-.35h1.86c2.48,0,4.41-1.12,5.78-3.35h-7.04c-.32,0-.59-.11-.82-.33-.23-.22-.35-.5-.35-.84v-3.85c0-.34.12-.63.35-.88.23-.25.5-.39.82-.41h9.22v-1.89h-7.77c-.32,0-.59-.11-.82-.33s-.35-.5-.35-.84v-3.85c0-.34.12-.63.35-.88.23-.25.5-.39.82-.41h7.77v-1.64c.02-.34.14-.62.36-.84.22-.22.52-.33.9-.33h3.95Z"/>
    <path class="cls-2" d="m185.88,64.5c.38,0,.69.11.93.33s.36.5.36.84v2.15h9.82c.34.02.62.16.85.41.23.25.35.55.35.88v2.46c0,.34-.12.62-.35.84s-.52.33-.85.33h-1.52v1.99c0,.59.11,1,.32,1.25.21.24.53.36.95.36.32.02.57.13.76.32.19.19.28.44.28.76v3.76c0,.34-.09.6-.28.79-.19.19-.44.29-.76.32-1.12,0-2.37-.63-3.76-1.89-1.37,1.26-2.57,1.89-3.6,1.89-.3,0-.56-.11-.79-.32s-.35-.52-.35-.91v-3.54c0-.34.12-.62.35-.84s.49-.33.79-.33c.36,0,.66-.12.9-.36.24-.24.36-.66.36-1.25v-1.99h-3.47v7.2c.17,2.17.9,3.78,2.19,4.85,1.29,1.06,3.19,1.62,5.7,1.66h1.77c.38,0,.7.13.98.38.27.25.41.57.41.95v2.97c0,.46-.14.81-.41,1.04-.27.23-.6.35-.98.35h-1.77c-2.95,0-5.58-1.04-7.89-3.13v3.19c0,.34-.12.62-.36.84s-.55.33-.93.33h-3.95c-.38,0-.68-.11-.9-.33s-.34-.5-.36-.84v-3.13c-2.48,2.04-5.13,3.06-7.95,3.06h-1.86c-.34-.02-.62-.14-.85-.35-.23-.21-.35-.48-.35-.82v-3.35c0-.34.12-.61.35-.82.23-.21.52-.33.85-.35h1.86c2.48,0,4.39-.54,5.71-1.63,1.33-1.08,2.07-2.71,2.24-4.88v-7.2h-3.47v1.99c0,.59.12,1,.36,1.25.24.24.54.36.9.36.29,0,.56.11.79.33.23.22.35.5.35.84v3.54c0,.4-.12.7-.35.91-.23.21-.5.32-.79.32-1.03,0-2.23-.63-3.6-1.89-1.39,1.26-2.64,1.89-3.76,1.89-.32-.02-.57-.13-.76-.32-.19-.19-.28-.45-.28-.79v-3.76c0-.32.1-.57.28-.76.19-.19.44-.29.76-.32.42,0,.74-.12.95-.36.21-.24.32-.66.32-1.25v-1.99h-1.48c-.32,0-.59-.11-.82-.33s-.35-.5-.35-.84v-2.46c0-.34.12-.63.35-.88.23-.25.5-.39.82-.41h9.78v-2.15c.02-.34.14-.62.36-.84s.52-.33.9-.33h3.95Z"/>
    <path class="cls-2" d="m229.95,91.14c0,.8-.13,1.34-.38,1.61-.25.27-.78.41-1.58.41h-5.27c-.91,0-1.36-.42-1.36-1.26v-.66h-10.07c-.84,0-1.36-.11-1.55-.33-.19-.22-.28-.56-.28-1.03v-6.19l-1.61.66v7.57c0,.34-.13.63-.39.88-.26.25-.58.38-.96.38h-2.59c-.42,0-.75-.13-.99-.38-.24-.25-.37-.55-.39-.88v-17.96c.02-.32.15-.6.39-.85.24-.25.57-.38.99-.38h4.2l-.47-1.07h-4.77c-.5,0-.85-.11-1.04-.33-.19-.22-.29-.56-.29-1.02v-1.89c0-.61.1-1.01.29-1.2s.54-.28,1.04-.28h10.73v-1.04c0-.31.13-.6.4-.85.26-.25.58-.38.96-.38h2.59c.42,0,.75.13.99.38.24.25.37.54.39.85v1.04h10.64c.55,0,.92.1,1.11.28.19.19.28.59.28,1.2v1.89c0,.46-.1.8-.28,1.02-.19.22-.56.33-1.11.33h-4.7l-.47,1.07h4.14c.59,0,.97.09,1.15.27.18.18.27.52.27,1.02v17.11Zm-21.24-12.18c.21-.13.36-.28.46-.47.1-.19.14-.55.14-1.07v-.32h-1.45v2.21l.85-.35Zm5.08-6.22h4.92l.5-1.07h-5.93l.5,1.07Zm5.27,5.93v-1.58h-5.65v1.58h5.65Zm-4.26,7.01h3v-1.45h-3v1.45Zm9.79,2.43v-4.48h-1.55v4.48h1.55Zm0-11.02h-1.42v.98c-.04.46.17.69.63.69h.79v-1.67Z"/>
    <path class="cls-2" d="m242.1,93.13h-3.79c-.5,0-.85-.08-1.04-.24-.19-.16-.28-.43-.28-.81v-2.05c0-.5.1-.84.28-1.01.19-.17.54-.25,1.04-.25h.25c.42,0,.63-.22.63-.66v-3.5c-1.62,1.64-2.89,2.46-3.82,2.46-.34-.02-.62-.14-.85-.35s-.35-.48-.35-.82v-2.24c0-.34.09-.6.27-.79.18-.19.65-.58,1.42-1.18.77-.6,1.48-1.43,2.13-2.48.17-.25.32-.55.44-.88h-2.97c-.55,0-.9-.09-1.04-.27-.15-.18-.22-.52-.22-1.02v-1.77c-.02-.55.05-.91.22-1.07s.5-.25,1.01-.25h2.43l-2.27-2.59c-.25-.48-.29-.83-.13-1.03.17-.2.5-.3,1.01-.3h2.08c.46-.02.77.06.93.25s.5.54,1.02,1.04l.38.47,2.08-2.53h-7.45c-.5,0-.85-.11-1.04-.33-.19-.22-.28-.56-.28-1.03v-1.39c0-.61.09-1.01.28-1.2.19-.19.54-.28,1.04-.28h11.49c.55,0,.92.1,1.11.28.19.19.28.59.28,1.2v1.39c0,.44-.08.78-.25,1.01l-4.1,5.02h3.03c-.02-.11-.03-.82-.03-2.15,0-.34.12-.61.35-.82s.52-.33.85-.35h.22c.44-.02.73-.29.87-.8.14-.52.2-1.36.2-2.54v-1.17c0-.34.12-.64.35-.9.23-.26.5-.39.82-.39h1.83c.34,0,.62.13.85.39.23.26.35.56.35.9v1.07h7.8c.55,0,.92.1,1.1.28.19.19.28.59.28,1.2v1.36c0,.46-.09.81-.28,1.03-.19.22-.56.33-1.1.33h-1.17c-.23,1.6-.89,3.03-1.99,4.29.99.27,2.12.47,3.41.6.44.02.75.13.93.32.18.19.27.45.27.79v2.11c0,.34-.12.61-.35.82-.23.21-.52.33-.85.35-2.55-.34-4.8-1.07-6.76-2.21-.29.19-.61.36-.95.5.38.38.57.74.57,1.07v2.21h6.72c.55,0,.92.1,1.1.28s.29.59.29,1.2v8.36c0,.38-.09.65-.27.81-.18.16-.54.24-1.09.24h-4.29c-.5,0-.85-.08-1.04-.24s-.28-.43-.28-.81v-2.05c0-.5.1-.84.28-1.01s.54-.25,1.04-.25h.63c.42,0,.63-.22.63-.66v-1.67h-3.73c-.08,2.25-.46,3.89-1.14,4.92-.76,1.14-1.86,1.74-3.32,1.8h-2.3c-.34-.02-.62-.14-.85-.35s-.35-.48-.35-.82v-2.05c0-.34.12-.61.35-.82.23-.21.52-.33.85-.35h.73c.52,0,.97-.22,1.33-.66.27-.34.44-.89.5-1.67h-2.05c-.5,0-.85-.11-1.04-.33-.19-.22-.28-.56-.28-1.03v-1.36c0-.61.09-1.01.28-1.2s.54-.28,1.04-.28h2.05v-1.99c-.7.17-1.42.31-2.18.41h-.03c-.02.42-.1.71-.22.88-.15.21-.41.31-.79.31h-1.7c-.51,0-.85-.09-1.03-.28-.18-.19-.27-.54-.27-1.04v-1.61c0-.4-.23-.6-.7-.6h-.09v13.76c0,.38-.09.65-.27.81-.18.16-.54.24-1.09.24Zm6.16-16.86c1.3-.13,2.45-.33,3.44-.6-.31-.38-.6-.77-.85-1.17-.4.17-.83.25-1.29.25h-1.29v1.52Zm6.79-2.37c.61-.63,1.03-1.47,1.26-2.53h-2.53c.23,1.05.65,1.89,1.26,2.53Z"/>
    <path class="cls-2" d="m266.15,88.62c0-.53.1-.91.3-1.17s.47-.4.81-.44c.76-.53,1.15-1.31,1.17-2.37v-18.15c0-.55.15-.96.44-1.23s.65-.42,1.07-.44h24.78c.46,0,.69.27.69.82v7.8c0,.53-.23.78-.69.76h-2.65v1.1h1.23c.55,0,.91.1,1.1.28.19.19.28.59.28,1.2v1.42c0,.46-.1.81-.28,1.03-.19.22-.56.33-1.1.33h-1.23v1.1h1.99c.55,0,.91.09,1.1.28s.28.59.28,1.2v1.45c0,.44-.1.77-.28.99-.19.22-.56.33-1.1.33h-7.58c-.02,1.49.22,2.56.73,3.19l.47-1.17c.25-.5.47-.85.66-1.03.19-.18.48-.27.88-.27h2.71c.5,0,.81.09.9.27.09.18.05.52-.14,1.03l-.98,2.02h2.75c.34.02.62.14.85.35.23.21.35.47.35.79v1.83c0,.34-.12.61-.35.82-.23.21-.52.33-.85.35h-6.22c-2.29-.06-3.91-.66-4.86-1.78-.95-1.12-1.53-2.93-1.74-5.41v-.98h-1.96v3.47c0,.46.21.7.63.7h.5c.51,0,.85.08,1.04.25.19.17.28.5.28.98v1.8c0,.38-.09.65-.28.8-.19.16-.54.24-1.04.24h-4.67c-.55,0-.91-.08-1.09-.24-.18-.16-.27-.42-.27-.8v-7.2h-1.04c-.11,2.08-.7,3.95-1.77,5.59-1.14,1.75-2.29,2.62-3.47,2.62h-.88c-.44,0-.8-.12-1.07-.36-.27-.24-.41-.63-.41-1.15v-3Zm7.61-18.69h16.29v-.92h-16.29v.92Zm.44,4.26c-.29,0-.44.15-.44.44v6.03h3.06v-1.1h-.88c-.55,0-.92-.11-1.11-.33-.19-.22-.28-.56-.28-1.03v-1.42c0-.61.1-1.01.28-1.2.19-.19.56-.28,1.11-.28h.88v-1.1h-2.62Zm12.22,0h-3.95v1.1h3.95v-1.1Zm0,5.37h-3.95v1.1h3.95v-1.1Z"/>
  </g>
  <rect class="cls-1" y="2.48" width="300" height="97.05"/>
  <path class="cls-2" d="m44.45,31.24v10.12l12.35-5.09-12.35-5.03Z"/>
  <path class="cls-2" d="m72.62,14.45L47.04,3.62,2.61,21.13l23.54,10.86,46.49-17.53h-.02Z"/>
  <path class="cls-2" d="m59.29,56.07l.88-1.3v-15.3l-.88-.57-12.9,5.28-21.43,8.72-.88-.58v-18.05l.82-1.23L1.07,21.93l-1.07,1.23v70.28l9.1,4.24,14.11-6.3.88-1.3v-18.26l.88-1.3,21.43-9.02,12.9-5.44v.02Z"/>
  <path class="cls-2" d="m74.71,15.33l-28.31,10.64v5.95l13.48,5.55.13.05.13.08.88.57.69.46v16.61l-.25.39-.88,1.3-.25.38-.42.17-13.5,5.69v12.16l.61,1.01,50.37,22.4,8.2-3.8v-18.22l-.64-1.01-18-8.08-.66.41v7.54l-.64.41-19.4-8.64-.66-1.01V28.89l.66-.41,22.2,9.22v-16.64l-13.7-5.78-.02.05Z"/>
  <g>
    <path class="cls-2" d="m90.33,21.75l17.72-5.57v5.58h-17.72Z"/>
    <path class="cls-2" d="m136.51,50.59l-7.85,11.91V22.71l7.85,11.7v16.17h0Z"/>
    <path class="cls-2" d="m120.3,38.58c.08.08.14.17.2.27.04.1.07.22.07.33v6.85c0,.12-.03.23-.07.34s-.1.2-.2.29c-.18.17-.42.26-.67.26s-.48-.09-.67-.26c-.09-.08-.16-.17-.21-.27s-.07-.22-.07-.34v-6.85c0-.12.03-.23.07-.34.05-.1.12-.2.21-.27.18-.17.42-.26.67-.26s.48.09.67.26h0Zm7.16-15.84v39.76h-37.13V22.74h37.13Zm-27.42,13.46h-6.04v12.86h6.04v-2.28h-3.65v-2.99h2.69v-2.28h-2.67v-2.99h3.65l-.03-2.33h.01Zm5.72,6.4l2.65-6.39h-2.63l-1.3,3.47-1.32-3.47h-2.63l2.66,6.39-2.65,6.47h2.57l1.38-3.59,1.38,3.59h2.57l-2.65-6.47h-.03Zm10.04-3.22c.01-.42-.05-.83-.2-1.23-.14-.39-.37-.76-.65-1.06-.33-.31-.7-.56-1.13-.72-.42-.16-.87-.23-1.32-.21h-3.33v12.86h2.39v-4.68h.94c.43,0,.86-.08,1.26-.23s.77-.4,1.07-.7c.31-.29.56-.64.73-1.04.17-.39.25-.82.23-1.24v-1.75Zm7.25-.14c0-.43-.08-.85-.25-1.24-.17-.39-.42-.74-.73-1.03-.64-.6-1.49-.94-2.36-.94s-1.72.34-2.36.94c-.31.29-.56.64-.73,1.03-.17.39-.25.82-.25,1.24v6.79c0,.43.08.85.25,1.24.17.39.42.74.73,1.03.31.3.68.55,1.08.7.4.16.83.23,1.28.23.87.01,1.72-.31,2.36-.93.31-.29.57-.64.74-1.03s.26-.82.25-1.25v-6.79h-.01Zm-10.51-.7h-.98v3.56h.98c.12,0,.25-.01.35-.07.12-.04.22-.12.3-.2.08-.08.16-.17.2-.27.05-.1.07-.22.07-.34v-1.81c0-.12-.01-.23-.05-.35-.04-.1-.1-.21-.2-.29s-.2-.14-.31-.18c-.12-.04-.23-.05-.37-.05h.01Z"/>
  </g>
  <g>
    <path class="cls-2" d="m145.94,25.86l-8.05,35.99-.15.63h6.18l1.49-7.65h6.07l1.49,7.65h6.18l-8.17-36.64h-5.08l.04.02Zm4.43,23.13h-3.82l1.91-9.87s1.91,9.87,1.91,9.87Z"/>
    <polygon class="cls-2" points="198.65 25.86 180.71 25.86 180.71 31.7 186.61 31.7 186.61 62.48 192.75 62.48 192.75 31.7 198.65 31.7 198.65 25.86"/>
    <path class="cls-2" d="m203.21,25.86l-8.05,35.99-.15.63h6.18l1.49-7.65h6.07l1.49,7.65h6.18l-8.17-36.64h-5.08l.04.02Zm4.43,23.13h-3.82l1.91-9.87,1.91,9.87Z"/>
    <rect class="cls-2" x="218.68" y="25.86" width="6.16" height="36.64"/>
    <polygon class="cls-2" points="249.88 25.86 247.71 46.13 244.08 25.86 239.31 25.86 235.8 45.65 233.57 25.86 227.08 25.86 232.48 62.04 232.54 62.48 238.24 62.48 241.7 41.74 245.19 62.48 250.88 62.48 256.35 25.86 249.88 25.86"/>
    <path class="cls-2" d="m261.35,25.86l-8.05,35.99-.15.63h6.18l1.49-7.65h6.07l1.49,7.65h6.18l-8.17-36.64h-5.08l.04.02Zm4.43,23.13h-3.82l1.91-9.87,1.91,9.87Z"/>
    <polygon class="cls-2" points="289.58 25.86 289.58 45.06 282.67 25.86 276.89 25.86 276.89 62.48 283.03 62.48 283.03 43.27 289.92 62.14 290.05 62.48 295.72 62.48 295.72 25.86 289.58 25.86"/>
    <circle class="cls-2" cx="164.57" cy="28.65" r="6.72"/>
    <path class="cls-2" d="m164.57,38c-1.09,0-2.1-.23-3.07-.57v25.04h6.16v-25.04c-.97.34-2,.57-3.07.57h-.02Z"/>
  </g>
</svg>