<svg width="245" height="112" viewBox="0 0 245 112" fill="none" xmlns="http://www.w3.org/2000/svg">
<g clip-path="url(#clip0_132_1243)">
<path fill-rule="evenodd" clip-rule="evenodd" d="M148.945 46.4428C149.616 46.302 149.774 46.3268 150.163 45.9624V45.9127L143.891 42.4343C143.526 43.9419 143.027 45.4137 142.399 46.832C141.137 50.1844 139.613 53.4326 137.842 56.5467C136.939 58.1037 135.705 60.5303 134.296 61.6235C135.598 64.0279 136.621 66.5731 137.345 69.2097H137.403C138.591 68.0018 139.566 66.6017 140.287 65.0688L140.452 64.9694C140.452 72.9256 140.433 80.8845 140.394 88.8461L146.277 88.018V56.2568C147.031 56.1657 147.106 55.9007 147.445 55.4286L145.788 54.7495C146.393 52.0165 148.423 49.3746 148.945 46.4428ZM130.99 74.3777L131.711 71.7192L132.879 65.781L133.6 59.2052C133.832 59.0147 134.594 59.1389 135.042 59.1555V53.8385L128.604 53.1677C128.463 53.06 128.604 52.2153 128.662 51.9088C128.844 50.4926 129.026 49.0681 129.217 47.6519C129.49 47.5691 129.772 47.5774 129.987 47.3124C129.987 47.2213 130.029 47.1219 130.045 47.0225L124.999 44.952C124.871 49.2163 124.237 53.4503 123.11 57.5654C122.655 59.1721 122.539 61.0769 121.669 62.3937V62.4931C121.669 62.2612 121.669 62.0376 121.611 61.814L115.115 61.6235V60.5551L120.997 60.7539V56.1078L123.218 56.2568C123.218 54.7744 123.218 53.2919 123.16 51.8095L120.997 51.5693V46.9314L115.115 46.1032C115.115 44.1404 115.479 45.1259 116.117 44.1156V43.9251L110.317 42.6165H110.267V45.3744L103.771 44.4634V49.681L100.996 49.4408L100.946 54.5673V54.617L103.722 54.8572L103.771 60.141L110.267 60.3812L110.325 60.4309V61.4413L102.943 61.2508V71.2388L108.602 71.0483C108.378 71.5121 108.155 71.9759 107.939 72.448L100.722 72.8289C101.186 74.8 101.648 76.7656 102.106 78.7257C102.321 78.718 102.526 78.6376 102.689 78.4976C102.851 78.3575 102.961 78.1663 103.001 77.9554L105.329 77.7153L103.498 81.144L108.469 81.9722C108.469 81.8893 108.544 81.8148 108.577 81.732L109.58 82.0218C108.643 82.85 103.979 84.1503 102.255 84.2414L102.197 84.2911C103.133 85.5996 104.302 87.6039 104.36 89.5087C106.912 89.194 113.474 85.9061 114.733 84.4402C116.391 84.7797 117.269 86.2622 118.735 86.6597C119.564 85.4174 120.393 84.1751 121.287 82.9411L121.453 82.8418C122.196 83.9189 122.755 85.1108 123.11 86.3699L123.218 86.4195C124.825 84.3159 127.485 82.6761 128.438 79.9928H128.488L129.88 82.2123C130.617 83.1896 131.595 83.9598 132.365 84.8708L132.531 84.9205C133.36 83.1068 134.238 81.467 135.199 79.8437C133.305 78.458 131.846 76.5621 130.99 74.3777V74.3777ZM115.115 50.2028L116.507 50.3436L116.556 51.4036L115.115 51.3125V50.2028ZM115.115 55.2713L116.507 55.3707L116.556 56.4308L115.115 56.3811V55.2713ZM110.292 66.866L108.072 66.9156V65.5574H110.234C110.234 65.9798 110.234 66.3856 110.292 66.8163V66.866ZM110.234 56.0415L108.793 55.9421V54.8323L108.851 54.7827L110.234 54.882H110.292C110.267 55.321 110.251 55.6937 110.234 56.0664V56.0415ZM110.292 50.7742L108.793 50.6251C108.793 50.2359 108.793 49.8549 108.851 49.4657L110.234 49.6147L110.292 49.6562V50.7742ZM115.115 65.5574H117.169V66.8163L115.115 66.866V65.5574ZM115.065 76.5806L114.12 78.3612L110.955 77.2432C110.955 77.1852 110.955 77.119 111.013 77.0527C111.519 76.6303 113.872 76.7877 114.675 76.5227H115.065V76.5806ZM125.604 76.0009C124.468 78.2421 122.812 80.1789 120.774 81.6492L118.338 80.3489L119.166 78.56L120.111 75.8518L122.994 75.4212C123.309 75.1147 123.235 72.1581 123.218 71.4541L113.341 72.0836L113.731 71.1643C115.678 70.5266 119.034 70.51 121.611 70.5348V66.8163C122.445 67.582 123.075 68.5443 123.442 69.6156L123.549 69.6652L124.552 67.6859L124.66 67.6362C125.03 69.3919 125.4 71.1477 125.77 72.9035C125.961 73.4998 126.143 74.0961 126.325 74.6924L125.604 76.0009ZM128.711 66.7666H128.629C127.994 64.1477 127.584 61.4796 127.402 58.7911L129.623 58.8905C129.557 61.6152 128.836 64.2075 128.711 66.7666ZM216.192 55.8013C216.084 55.0808 218.23 50.8322 218.636 49.7058C218.852 49.0516 219.075 48.389 219.299 47.7265C219.693 47.7781 220.091 47.6741 220.409 47.4366C220.424 47.3878 220.443 47.3406 220.467 47.2958L214.195 43.7677L213.193 46.8072C212.372 49.0814 211.428 51.3098 210.367 53.4824C209.201 55.9381 207.814 58.2831 206.224 60.4889L204.227 62.9735C204.029 63.313 204.865 64.4394 205.056 64.8617C205.735 66.3028 207.136 68.9199 207.326 70.4686H207.343C208.867 69.3588 209.655 67.2304 210.781 65.781C210.804 65.7498 210.823 65.7165 210.839 65.6816C210.839 73.3507 210.859 81.0197 210.897 88.6888L216.606 87.8606C216.606 77.6849 216.626 67.5064 216.664 57.3252C217.302 57.2424 217.692 56.9691 217.775 56.4059L216.192 55.8013ZM170.886 44.0327C171.107 57.2838 171.328 70.5569 171.549 83.8522L176.934 83.2227V78.8747L184.151 78.1956C184.151 67.4015 184.132 56.6102 184.093 45.8216L170.886 44.0327ZM176.686 51.3291L179.014 51.5196C179.014 54.0042 179.014 56.4887 179.072 58.9733L176.735 58.8739L176.686 51.3291ZM176.901 72.7875C176.901 70.2201 176.827 67.661 176.793 65.1019H179.122C179.122 67.5865 179.122 70.129 179.18 72.6384L176.901 72.7875ZM196.571 54.9069L202.173 55.2879C202.214 53.5652 202.247 51.8426 202.289 50.1199L196.679 49.4408C196.679 48.4304 196.721 47.4118 196.737 46.4014C196.93 46.3949 197.117 46.3318 197.275 46.2199C197.433 46.1079 197.554 45.9522 197.624 45.7719C197.541 45.4655 192.942 44.4054 192.188 44.3226V48.8611L185.808 48.1406V53.9876L192.023 54.5176C192.142 55.5292 192.159 56.5504 192.072 57.5654L184.806 57.1264C184.806 59.1058 184.806 61.0935 184.748 63.0728L195.851 63.2136C195.851 64.1661 195.851 65.1185 195.793 66.0709L184.806 66.1123C184.806 68.0171 184.806 69.9137 184.748 71.8185L195.685 71.2885C195.685 73.2844 195.643 75.2804 195.627 77.2763C195.511 77.972 195.842 78.9824 195.519 79.5042C195.254 79.8768 192.47 80.0508 191.633 80.0342C192.023 81.7817 192.893 83.4381 192.967 85.492C195.527 85.1938 197.881 84.4567 198.958 82.8335C200.217 80.9286 199.869 74.2451 199.844 71.1394L202.396 70.9986C202.452 69.3422 202.507 67.6859 202.562 66.0295H199.952C199.952 65.4498 199.952 64.87 200.01 64.2903C200.515 64.1164 200.764 63.9507 200.839 63.4207L198.784 63.3213H202.612C202.65 61.6152 202.686 59.9064 202.719 58.1948L196.563 57.8138L196.571 54.9069ZM148.804 57.5157L168.889 58.6255V53.118L161.68 52.3892V46.5422C162.078 46.2026 162.351 46.4345 162.617 45.9127V45.7222L156.817 44.4634C156.817 46.948 156.775 49.4325 156.759 51.9171L148.771 51.1386L148.804 57.5157ZM235.97 73.8973L234.686 72.2989V72.2078C234.628 73.1271 234.578 74.0381 234.52 74.9574C234.358 76.3091 234.117 77.6503 233.799 78.9741L233.633 79.0652C232.349 78.9161 232.092 76.5806 231.802 75.5371C230.737 71.7258 230.142 67.7987 230.029 63.8431L237.793 63.0149C237.685 61.1929 237.569 59.3708 237.461 57.5571L237.403 57.5074L229.582 57.9877C229.526 54.5425 229.471 51.0944 229.416 47.6437L230.195 47.5029L230.468 47.0639V46.8237L224.362 45.5235C224.362 49.8715 224.71 54.1284 224.701 58.3273L217.816 58.758C217.998 60.903 218.189 63.048 218.371 65.1847L225.141 64.4145H225.199C225.26 66.5762 225.521 68.7275 225.977 70.8413C226.748 74.5102 227.113 77.9637 228.463 80.9949C229.292 82.7755 230.12 85.0365 232.606 85.3429C233.137 85.3555 233.665 85.2568 234.155 85.053C236.973 84.1172 237.188 81.1191 237.76 78.237C237.859 77.3343 237.95 76.4316 238.041 75.5288C237.354 74.9491 236.533 74.5433 235.945 73.8973H235.97ZM234.445 56.8283L237.279 54.6501L237.834 54.1698C237.627 53.706 237.428 53.2339 237.221 52.7702C236.543 51.3109 235.785 49.8898 234.951 48.5133C234.644 47.9915 234.363 47.155 233.841 46.8569L230.675 49.035L230.559 49.1758C231.048 49.7719 231.442 50.4394 231.728 51.1552C232.647 52.9358 233.857 54.733 234.445 56.8283ZM157.935 76.1086C157.929 73.5795 157.687 71.0565 157.214 68.572L156.493 63.3544C156.228 62.0128 155.971 60.6794 155.715 59.3377H155.433L150.884 60.2073C151.439 62.4848 151.481 64.8535 151.936 67.2635C152.583 70.7395 152.883 74.2711 152.831 77.8064L157.935 76.1086ZM160.935 72.0504C160.653 73.359 160.371 74.6592 160.106 75.9678L164.249 77.1769C164.713 75.1313 165.169 73.0857 165.633 71.04C165.931 69.2346 166.226 67.4291 166.519 65.6237C166.685 64.4311 166.851 63.2385 167.025 62.0459C167.513 61.8968 167.803 61.814 167.961 61.3751L162.6 59.4454C162.385 61.3916 162.161 63.3461 161.937 65.2924L160.935 72.0504ZM189.611 71.6612L185.725 74.8083C187.026 76.8871 188.692 79.0238 189.33 81.616L193.332 78.1873C193.009 76.6386 190.689 72.5639 189.611 71.6695V71.6612ZM148.108 85.7404L169.369 82.7921V77.2349L148.108 79.264V85.7404Z" fill="#6B7280"/>
<path fill-rule="evenodd" clip-rule="evenodd" d="M23.4663 50.3849H21.8091V56.6211C22.3571 56.7067 22.912 56.74 23.4663 56.7205C25.5957 56.7205 27.5097 55.8923 27.5097 53.5568C27.5097 51.2213 25.5211 50.3849 23.4663 50.3849ZM27.0291 46.3184C27.0291 44.4881 25.6869 43.6931 23.574 43.6931C22.9933 43.675 22.4124 43.7223 21.8423 43.8339V49.1012H23.6486C25.7034 49.0846 27.0291 47.9086 27.0291 46.3184V46.3184ZM71.1423 47.8837C69.1123 47.8837 68.2174 49.8134 68.0517 51.3373H73.9429C73.9429 49.8383 73.3214 47.8837 71.1423 47.8837ZM86.8851 49.5401C86.8851 50.5008 87.5149 50.948 88.94 51.5526C90.3651 52.1572 91.2186 52.7783 91.5831 53.797L90.0669 48.1239C89.6469 47.9735 89.2038 47.8978 88.7577 47.9003C88.5228 47.8683 88.2837 47.8871 88.0567 47.9553C87.8296 48.0236 87.6199 48.1398 87.4416 48.296C87.2633 48.4522 87.1206 48.6449 87.0232 48.8609C86.9258 49.077 86.8759 49.3114 86.8769 49.5484L86.8851 49.5401ZM91.7157 54.2691C91.7501 54.4743 91.7667 54.6821 91.7654 54.8902C91.7654 56.8613 90.2657 58.203 87.8463 58.203C86.8278 58.2088 85.8254 57.949 84.938 57.4493L85.402 56.1491C86.1544 56.6043 87.0091 56.8635 87.8877 56.9027C89.3709 56.9027 90.1083 56.0745 90.1083 55.1138C90.1083 54.1531 89.5117 53.5071 88.0534 52.9191C86.1809 52.1655 85.228 51.1302 85.228 49.7886C85.228 48.0577 86.6034 46.6414 88.8406 46.6414C89.1179 46.6388 89.3949 46.6582 89.6691 46.6994L78.4917 5L6 24.4128L20.152 77.2183V59.9919H27.0209L31.8514 69.2925C33.2865 71.9829 34.5781 74.7474 35.7209 77.5744H35.8286C35.4492 73.7905 35.2666 69.9895 35.2817 66.1868V60.0084H41.0817V85.9722H34.6271L29.6557 76.5309C28.1865 73.7501 26.8698 70.8913 25.7117 67.9674H25.5626C25.7531 70.9903 25.894 74.9573 25.894 79.562V85.9474H22.4969L26.532 101.012L84.1094 85.5913C81.1928 84.1502 81.1266 80.8209 81.1266 79.1645V71.305H78.6409V67.164L72.8657 76.183L78.7486 85.9557H71.5897L69.9326 82.5932C69.4934 81.6905 69.0543 80.7132 68.6897 79.7774H68.5737C68.2091 80.7464 67.7451 81.7236 67.3723 82.6346L65.9057 85.9474H59.1114L64.9611 76.4066L59.1611 67.0398H66.2454L67.8197 70.1621L69.1371 73.0856H69.2449C69.6509 72.1414 70.0734 71.0648 70.4877 70.0958L71.8797 67.0398H81.0851V63.5779L87.4403 61.9216V67.0315H91.7157V71.2967H87.4403V78.4191C87.4403 80.6304 88.2109 81.442 89.7437 81.442C90.3013 81.4574 90.8586 81.3989 91.4009 81.2681V83.6036L98.9491 81.5828L91.7157 54.2691ZM28.0731 56.5963C27.0374 57.6067 25.372 58.0539 23.0271 58.0539C22.0695 58.0494 21.1127 57.9969 20.1603 57.8966V42.6827C21.2517 42.4664 22.3619 42.3582 23.4746 42.3597C25.3803 42.3597 26.648 42.7241 27.5594 43.4943C27.9405 43.827 28.2424 44.2406 28.4431 44.7048C28.6438 45.1691 28.7382 45.6723 28.7194 46.1777C28.6947 46.9498 28.4278 47.6947 27.9564 48.3069C27.4851 48.9192 26.8332 49.368 26.0929 49.5898V49.6561C26.9965 49.8332 27.8102 50.3196 28.3939 51.0315C28.9776 51.7434 29.2949 52.6364 29.2911 53.5568C29.3095 54.1221 29.21 54.685 28.9989 55.2097C28.7878 55.7344 28.4697 56.2094 28.0649 56.6046L28.0731 56.5963ZM38.6457 57.938L38.5629 56.1905H38.5049C38.1434 56.8047 37.6255 57.3121 37.0041 57.6613C36.3826 58.0104 35.6797 58.1888 34.9669 58.1781C33.3097 58.1781 31.3211 57.2257 31.3211 53.4078V46.8899H32.9783V53.1345C32.9783 55.2878 33.608 56.7868 35.464 56.7868C35.852 56.7814 36.2352 56.6992 36.5912 56.5447C36.9472 56.3903 37.269 56.1668 37.5379 55.8872C37.8069 55.6076 38.0177 55.2774 38.1581 54.9157C38.2984 54.5541 38.3656 54.1682 38.3557 53.7805V46.8899H40.0129V55.0227C40.0129 56.1574 40.0709 57.1181 40.1123 57.9711L38.6457 57.938ZM51.9029 42.6164C52.1904 42.6409 52.4582 42.7723 52.6534 42.9847C52.8486 43.1971 52.957 43.4751 52.957 43.7635C52.957 44.0519 52.8486 44.3298 52.6534 44.5422C52.4582 44.7547 52.1904 44.8861 51.9029 44.9105C51.6153 44.8861 51.3475 44.7547 51.1523 44.5422C50.9571 44.3298 50.8487 44.0519 50.8487 43.7635C50.8487 43.4751 50.9571 43.1971 51.1523 42.9847C51.3475 42.7723 51.6153 42.6409 51.9029 42.6164ZM52.7314 46.8568V57.938H51.0743V46.8899L52.7314 46.8568ZM45.2743 52.8777C43.4017 52.1241 42.4489 51.0888 42.4489 49.7472C42.4489 48.0162 43.8326 46.6 46.0614 46.6C46.9537 46.5863 47.833 46.8153 48.6051 47.2626L48.0666 48.5463C47.426 48.1274 46.6777 47.903 45.9123 47.9003C45.6773 47.8695 45.4384 47.8894 45.2118 47.9588C44.9852 48.0281 44.7761 48.1452 44.5986 48.3022C44.4211 48.4592 44.2794 48.6524 44.183 48.8688C44.0865 49.0852 44.0377 49.3198 44.0397 49.5567C44.0397 50.5174 44.6777 50.9646 46.0946 51.5692C47.8843 52.3063 48.92 53.2256 48.92 54.8819C48.92 56.853 47.4203 58.1947 45.0009 58.1947C43.9824 58.2005 42.98 57.9407 42.0926 57.4411L42.5566 56.1408C43.309 56.596 44.1637 56.8552 45.0423 56.8944C46.5254 56.8944 47.2629 56.0663 47.2629 55.1056C47.2629 54.1449 46.6829 53.5154 45.2246 52.886L45.2743 52.8777ZM59.6666 76.0671C59.6861 76.8992 59.6251 77.7313 59.4843 78.5516H47.8843C48.0334 80.8043 50.2209 81.8644 52.8557 81.8644C54.5403 81.8677 56.216 81.6193 57.8271 81.1273L58.6557 85.2269C56.4667 85.9579 54.169 86.3108 51.8614 86.2704C45.3903 86.2704 41.7363 82.7092 41.7363 76.7959C41.7363 71.3878 45.1749 66.6505 51.3146 66.6505C56.1451 66.6754 59.6169 69.6983 59.6169 76.1168L59.6666 76.0671ZM64.4474 57.8966H62.7903V51.3539C62.7903 49.5401 62.1357 47.9583 60.2051 47.9583C59.8068 47.9721 59.4152 48.0647 59.0529 48.2307C58.6906 48.3968 58.3648 48.6329 58.0944 48.9256C57.8239 49.2182 57.6142 49.5616 57.4773 49.9357C57.3404 50.3099 57.2791 50.7074 57.2969 51.1054V57.8966H55.6397V49.6643C55.6397 48.5214 55.6397 47.6932 55.5569 46.7988H56.9571L57.0566 48.6043C57.4175 47.9685 57.9479 47.4454 58.5886 47.093C59.2293 46.7406 59.9553 46.5728 60.6857 46.6083C62.0694 46.6083 64.4309 47.4365 64.4309 51.1965L64.4474 57.8966ZM75.6 52.5961H68.0103C68.0103 55.6687 69.7834 56.8282 71.772 56.8282C72.771 56.8463 73.7625 56.6515 74.6803 56.2567L75.0034 57.4742C73.9131 57.9636 72.7265 58.2013 71.5317 58.1699C68.3003 58.1699 66.3697 55.8923 66.3697 52.5796C66.3697 49.1012 68.3169 46.6083 71.3411 46.6083C74.7549 46.6083 75.6331 49.7306 75.6331 51.6686C75.6 52.0495 75.6 52.3311 75.6 52.5961ZM79.7429 58.1699C78.7244 58.1756 77.722 57.9159 76.8346 57.4162L77.2986 56.1159C78.051 56.5712 78.9057 56.8303 79.7843 56.8696C81.2674 56.8696 81.9966 56.0414 81.9966 55.0807C81.9966 54.12 81.4083 53.474 79.95 52.886C78.0774 52.1324 77.1246 51.0971 77.1246 49.7554C77.1246 48.0245 78.5 46.6083 80.7371 46.6083C81.6295 46.5946 82.5087 46.8236 83.2808 47.2709L82.792 48.5546C82.1514 48.1357 81.4032 47.9113 80.6377 47.9086C80.4027 47.8778 80.1639 47.8977 79.9372 47.967C79.7106 48.0364 79.5015 48.1535 79.324 48.3105C79.1465 48.4675 79.0048 48.6607 78.9084 48.8771C78.812 49.0935 78.7631 49.3281 78.7651 49.565C78.7651 50.5257 79.3949 50.9729 80.82 51.5775C82.6097 52.3146 83.6454 53.2338 83.6454 54.8902C83.6454 56.8696 82.1457 58.1699 79.7429 58.1699V58.1699ZM50.9169 70.7418C48.7211 70.7418 47.8843 72.9614 47.7766 74.5349H53.734C53.734 72.8537 53.1457 70.7418 50.9169 70.7418Z" fill="#6B7280"/>
<path d="M28.4792 104.308L29.2249 105.617C29.3906 105.907 29.5397 106.18 29.6723 106.445C29.6723 106.147 29.6723 105.824 29.6723 105.493L29.7469 103.961L30.1777 103.845L31.0063 105.12C31.1969 105.426 31.3543 105.7 31.4952 105.948C31.4774 105.628 31.4774 105.307 31.4952 104.987V103.488L32.0006 103.356L31.8431 106.379L31.3874 106.495L30.6003 105.286C30.4263 105.004 30.2689 104.747 30.1114 104.457C30.1281 104.786 30.1281 105.115 30.1114 105.443L30.0286 106.876L29.5729 107L27.9903 104.441L28.4792 104.308Z" fill="#6B7280"/>
<path d="M32.6385 103.207L33.3843 104.524C33.55 104.813 33.6991 105.079 33.8317 105.352C33.8317 105.045 33.8317 104.722 33.8317 104.399L33.9063 102.859L34.3371 102.743L35.1657 104.027C35.3563 104.325 35.5137 104.598 35.6545 104.855C35.6371 104.535 35.6371 104.214 35.6545 103.894V102.387L36.16 102.254L36.0025 105.277L35.5468 105.402L34.7183 104.184C34.5443 103.902 34.3868 103.646 34.2294 103.356C34.2461 103.687 34.2461 104.019 34.2294 104.35L34.1714 105.766L33.7157 105.89L32.1331 103.331L32.6385 103.207Z" fill="#6B7280"/>
<path d="M36.798 102.081L37.5437 103.389C37.7094 103.679 37.8586 103.952 37.9911 104.217C37.9911 103.919 37.9911 103.596 37.9911 103.265L38.0657 101.733L38.4966 101.617L39.3251 102.892C39.5157 103.199 39.6731 103.472 39.814 103.72C39.7963 103.4 39.7963 103.08 39.814 102.76V101.261L40.3111 101.128L40.162 104.151L39.7063 104.267L38.9191 103.058C38.7423 102.79 38.5792 102.514 38.4303 102.23V102.23C38.447 102.558 38.447 102.887 38.4303 103.215L38.3143 104.648L37.8586 104.772L36.276 102.213L36.798 102.081Z" fill="#6B7280"/>
<path d="M41.438 103.886C41.3669 103.906 41.2913 103.905 41.2209 103.883C41.1504 103.86 41.0883 103.817 41.0424 103.759C40.9965 103.701 40.969 103.63 40.9632 103.557C40.9575 103.483 40.9738 103.409 41.0101 103.345C41.0465 103.28 41.1012 103.228 41.1673 103.195C41.2333 103.162 41.3078 103.149 41.3813 103.158C41.4547 103.167 41.5237 103.198 41.5796 103.246C41.6354 103.295 41.6755 103.359 41.6949 103.43C41.71 103.477 41.7155 103.525 41.7111 103.574C41.7067 103.622 41.6924 103.669 41.6691 103.712C41.6458 103.755 41.614 103.792 41.5757 103.822C41.5374 103.852 41.4934 103.874 41.4463 103.886H41.438Z" fill="#6B7280"/>
<path d="M41.1646 99.5131L41.6617 99.3806L42.134 101.128C42.1862 100.935 42.2915 100.761 42.4379 100.624C42.5844 100.488 42.7662 100.396 42.9626 100.358C43.138 100.321 43.3192 100.321 43.4946 100.358C43.67 100.395 43.8359 100.468 43.9816 100.572C44.1273 100.676 44.2497 100.81 44.341 100.964C44.4323 101.118 44.4905 101.29 44.512 101.468C44.5856 101.641 44.6224 101.827 44.62 102.016C44.6177 102.204 44.5762 102.389 44.4983 102.561C44.4204 102.732 44.3078 102.885 44.1675 103.011C44.0272 103.136 43.8624 103.231 43.6834 103.29C43.4979 103.353 43.2981 103.36 43.1084 103.312C42.9186 103.263 42.7471 103.161 42.6146 103.016V103.016L42.714 103.488L42.2748 103.604C42.2748 103.414 42.1671 103.124 42.1008 102.876L41.1646 99.5131ZM42.4571 102.379C42.4733 102.443 42.4984 102.504 42.5317 102.561C42.6214 102.715 42.7585 102.837 42.9228 102.907C43.087 102.977 43.2695 102.992 43.4431 102.95C43.9734 102.809 44.1806 102.288 44.0066 101.65C43.8326 101.012 43.4431 100.697 42.8963 100.822C42.7186 100.873 42.5633 100.983 42.4552 101.133C42.3471 101.283 42.2923 101.465 42.2997 101.65C42.2888 101.721 42.2888 101.794 42.2997 101.865L42.4571 102.379Z" fill="#6B7280"/>
<path d="M44.8434 100.722C44.7605 100.432 44.6943 100.2 44.6197 99.9769L45.0671 99.8526L45.2163 100.308C45.2656 100.122 45.365 99.952 45.5038 99.8177C45.6425 99.6834 45.8152 99.5896 46.0034 99.5462C46.3845 99.4385 47.0474 99.5462 47.3043 100.465L47.7434 102.122L47.238 102.263L46.8071 100.656C46.6911 100.209 46.426 99.8775 45.9785 100.01C45.8252 100.051 45.6896 100.142 45.5924 100.267C45.4952 100.393 45.4417 100.547 45.44 100.706C45.4289 100.788 45.4289 100.872 45.44 100.954L45.8874 102.611L45.382 102.743L44.8434 100.722Z" fill="#6B7280"/>
<path d="M48.3649 100.565C48.3886 100.697 48.4406 100.822 48.5174 100.932C48.5942 101.042 48.6939 101.134 48.8097 101.202C48.9254 101.269 49.0545 101.311 49.188 101.324C49.3215 101.337 49.4562 101.321 49.5829 101.277C49.8478 101.214 50.0964 101.096 50.312 100.929L50.4943 101.269C50.2349 101.471 49.9355 101.615 49.616 101.691C49.4332 101.753 49.2392 101.774 49.0474 101.753C48.8557 101.732 48.6707 101.67 48.5053 101.571C48.3399 101.471 48.198 101.338 48.0894 101.178C47.9807 101.019 47.9079 100.838 47.876 100.648C47.8049 100.468 47.772 100.275 47.7796 100.082C47.7871 99.8886 47.8349 99.699 47.9199 99.5252C48.0049 99.3514 48.1252 99.1972 48.2732 99.0725C48.4211 98.9478 48.5934 98.8553 48.7792 98.8009C48.9439 98.7611 49.1152 98.7559 49.2821 98.7855C49.449 98.8152 49.6079 98.8792 49.7488 98.9733C49.8898 99.0675 50.0096 99.1898 50.1009 99.3327C50.1921 99.4755 50.2527 99.6356 50.2789 99.803C50.2789 99.9107 50.2789 99.9935 50.3203 100.043L48.3649 100.565ZM49.7569 99.8113C49.7436 99.7058 49.7081 99.6044 49.6528 99.5136C49.5975 99.4228 49.5236 99.3447 49.436 99.2845C49.3483 99.2242 49.2489 99.1832 49.1443 99.1641C49.0397 99.145 48.9322 99.1482 48.8289 99.1736C48.6265 99.247 48.4582 99.3922 48.3558 99.5815C48.2535 99.7708 48.2243 99.9911 48.2737 100.201L49.7569 99.8113Z" fill="#6B7280"/>
<path d="M50.6434 98.3702L51.1986 98.8588C51.3477 98.983 51.472 99.1073 51.6046 99.2398C51.6543 99.0493 51.704 98.8837 51.762 98.7097L51.994 98.0141L52.5409 97.865L51.9526 99.4634L53.3114 100.639L52.7397 100.797L52.1597 100.275L51.7372 99.8775C51.7372 100.076 51.6294 100.242 51.5714 100.441L51.3394 101.169L50.7843 101.319L51.3892 99.6622L50.08 98.5524L50.6434 98.3702Z" fill="#6B7280"/>
<path d="M53.4357 96.9043L53.6097 97.5751L54.3389 97.3764L54.4383 97.7656L53.7174 97.9561L54.1152 99.4551C54.2146 99.803 54.3637 99.9769 54.6454 99.8941C54.7445 99.8734 54.8396 99.837 54.9272 99.7864L55.0514 100.159C54.9221 100.251 54.7756 100.316 54.6206 100.35C54.5208 100.382 54.4153 100.392 54.3111 100.381C54.2069 100.37 54.1062 100.336 54.0157 100.283C53.81 100.113 53.6719 99.8754 53.6263 99.6125L53.2286 98.0886L52.7977 98.2046L52.6983 97.8236L53.1292 97.7076L52.9883 97.1942L53.4357 96.9043Z" fill="#6B7280"/>
<path d="M55.7143 100.06C55.6432 100.08 55.5676 100.079 55.4972 100.056C55.4267 100.034 55.3646 99.9907 55.3187 99.9326C55.2728 99.8746 55.2453 99.8042 55.2395 99.7305C55.2338 99.6568 55.2501 99.583 55.2864 99.5185C55.3228 99.4541 55.3775 99.4019 55.4436 99.3687C55.5096 99.3354 55.5841 99.3226 55.6576 99.3317C55.731 99.3409 55.8 99.3717 55.8559 99.4203C55.9117 99.4688 55.9519 99.5328 55.9712 99.6042C55.9863 99.6504 55.9919 99.6992 55.9874 99.7476C55.983 99.796 55.9687 99.843 55.9454 99.8857C55.9221 99.9283 55.8903 99.9658 55.852 99.9957C55.8137 100.026 55.7697 100.047 55.7226 100.06H55.7143Z" fill="#6B7280"/>
<path d="M58.4983 99.1405C58.275 99.3168 58.0186 99.4463 57.7443 99.5215C57.5581 99.5798 57.3617 99.5982 57.1679 99.5753C56.9741 99.5524 56.7874 99.4888 56.62 99.3887C56.4525 99.2886 56.3081 99.1542 56.1963 98.9944C56.0845 98.8346 56.0078 98.653 55.9711 98.4614C55.9102 98.2656 55.8908 98.0592 55.9141 97.8555C55.9375 97.6518 56.0032 97.4552 56.1069 97.2782C56.2106 97.1013 56.3501 96.9479 56.5165 96.8279C56.6828 96.708 56.8724 96.624 57.0731 96.5814C57.3135 96.517 57.5645 96.5029 57.8106 96.54V96.9624C57.6068 96.9098 57.3929 96.9098 57.1891 96.9624C57.0522 96.9958 56.9238 97.0577 56.8124 97.144C56.701 97.2304 56.6091 97.3392 56.5426 97.4635C56.4761 97.5877 56.4366 97.7246 56.4267 97.8652C56.4167 98.0057 56.4366 98.1468 56.4848 98.2792C56.5084 98.4164 56.5607 98.547 56.6384 98.6624C56.7161 98.7779 56.8174 98.8757 56.9356 98.9492C57.0538 99.0227 57.1862 99.0704 57.3241 99.0891C57.4621 99.1078 57.6025 99.0971 57.736 99.0577C57.949 99.0023 58.147 98.9005 58.316 98.7596L58.4983 99.1405Z" fill="#6B7280"/>
<path d="M61.0751 97.0368C61.1439 97.2229 61.1725 97.4213 61.1592 97.6192C61.1458 97.8171 61.0908 98.0099 60.9977 98.1851C60.9046 98.3602 60.7756 98.5137 60.619 98.6356C60.4624 98.7574 60.2818 98.8448 60.0891 98.892C59.9055 98.9435 59.713 98.9559 59.5243 98.9286C59.3355 98.9013 59.1545 98.8349 58.9929 98.7334C58.8314 98.632 58.6929 98.498 58.5863 98.3399C58.4797 98.1817 58.4074 98.0031 58.374 97.8153C58.3052 97.6304 58.2763 97.433 58.2892 97.2361C58.3021 97.0392 58.3565 96.8473 58.4488 96.6729C58.5411 96.4985 58.6693 96.3456 58.8249 96.2242C58.9805 96.1028 59.16 96.0156 59.3517 95.9685C59.5353 95.9143 59.7284 95.8995 59.9181 95.925C60.1079 95.9506 60.2901 96.0159 60.4528 96.1168C60.6156 96.2177 60.7551 96.3518 60.8624 96.5103C60.9696 96.6689 61.0421 96.8483 61.0751 97.0368V97.0368ZM58.8794 97.658C59.0451 98.2708 59.5174 98.6353 60.0063 98.4862C60.1304 98.4389 60.2436 98.367 60.3392 98.2749C60.4348 98.1828 60.5108 98.0723 60.5627 97.9501C60.6145 97.8279 60.6411 97.6965 60.6409 97.5637C60.6407 97.431 60.6137 97.2997 60.5614 97.1776C60.4371 96.7056 60.0394 96.1755 59.4429 96.3494C58.8463 96.5234 58.7386 97.1279 58.8794 97.658Z" fill="#6B7280"/>
<path d="M61.4066 96.2915C61.345 96.0393 61.2704 95.7905 61.1829 95.5462L61.6303 95.4302L61.7711 95.8691C61.8115 95.6881 61.9021 95.5222 62.0325 95.3903C62.1629 95.2585 62.328 95.1661 62.5086 95.1238C62.6813 95.0721 62.8661 95.078 63.0351 95.1408C63.204 95.2036 63.3479 95.3197 63.4449 95.4716V95.4716C63.4861 95.3097 63.5593 95.1576 63.6603 95.0244C63.7986 94.8412 63.9988 94.7146 64.2237 94.6683C64.5966 94.5689 65.2014 94.6683 65.4666 95.629L65.9057 97.2854L65.4086 97.4179L64.986 95.836C64.8452 95.306 64.5634 95.0078 64.1574 95.1486C64.025 95.1895 63.9086 95.2704 63.824 95.3801C63.7394 95.4899 63.6909 95.6231 63.6852 95.7615C63.6695 95.8491 63.6695 95.9389 63.6852 96.0265L64.1491 97.7491L63.652 97.8816L63.2046 96.2253C63.0886 95.7863 62.8069 95.5213 62.376 95.6207C62.2346 95.6674 62.1114 95.7573 62.0237 95.8776C61.936 95.9979 61.8883 96.1427 61.8871 96.2915C61.8749 96.3767 61.8749 96.4631 61.8871 96.5483L62.3429 98.2046L61.8457 98.3371L61.4066 96.2915Z" fill="#6B7280"/>
<path d="M66.8337 97.0784C66.7411 97.0944 66.6459 97.0749 66.5671 97.0237C66.4883 96.9726 66.4317 96.8936 66.4087 96.8025C66.3856 96.7115 66.3978 96.6151 66.4428 96.5326C66.4879 96.4502 66.5624 96.3877 66.6515 96.3578C66.7465 96.3343 66.8469 96.3491 66.9311 96.399C67.0153 96.4488 67.0765 96.5298 67.1015 96.6244C67.1266 96.7189 67.1134 96.8196 67.0648 96.9045C67.0163 96.9894 66.9362 97.0519 66.842 97.0784H66.8337Z" fill="#6B7280"/>
<path d="M67.3143 93.1858L67.4965 93.8483L68.2174 93.6579L68.3168 94.0388L67.596 94.2376L68.002 95.7366C68.0931 96.0762 68.2423 96.2501 68.524 96.1756C68.623 96.1507 68.7179 96.1116 68.8057 96.0596L68.93 96.4323C68.7996 96.5241 68.6536 96.5914 68.4991 96.6311C68.3987 96.6619 68.293 96.6712 68.1887 96.6584C68.0845 96.6455 67.9841 96.6108 67.8943 96.5565C67.6868 96.388 67.5483 96.1494 67.5048 95.8857L67.0988 94.3701L66.668 94.4861L66.5685 94.0968L66.9994 93.9809L66.8585 93.4674L67.3143 93.1858Z" fill="#6B7280"/>
<path d="M68.9217 93.4756L69.6674 94.7925C69.8331 95.0823 69.9823 95.3473 70.1148 95.6206C70.1148 95.3225 70.1148 94.9995 70.1148 94.6682L70.1894 93.1361L70.6203 93.0201L71.4488 94.2955C71.6394 94.602 71.7968 94.8753 71.9377 95.1237C71.92 94.8037 71.92 94.483 71.9377 94.163V92.664L72.4348 92.5315L72.2857 95.5544L71.83 95.6786L71.0428 94.4612C70.8688 94.1796 70.7114 93.9229 70.554 93.633C70.5707 93.9613 70.5707 94.2902 70.554 94.6185L70.4545 96.0596L69.9988 96.1838L68.4163 93.6247L68.9217 93.4756Z" fill="#6B7280"/>
</g>
<defs>
<clipPath id="clip0_132_1243">
<rect width="232" height="102" fill="white" transform="translate(6 5)"/>
</clipPath>
</defs>
</svg>
