<svg width="283" height="112" viewBox="0 0 283 112" fill="#6B7280" xmlns="http://www.w3.org/2000/svg">
<g clip-path="url(#clip0_132_1245)">
<path d="M52.8052 40.8884V49.9916L63.8705 45.4124L52.8052 40.8884Z"/>
<path d="M75.313 24.3401L53.3632 15L15.2319 30.0957L35.4292 39.4595L75.313 24.3401Z"/>
<path d="M63.8705 60.2161L64.625 59.095V45.902L63.8705 45.4125L52.8052 49.9602L34.4233 57.4764L33.6689 56.979V41.4175L34.3762 40.3596L13.9116 30.7905L13 31.8406V92.4208L20.8117 96.0763L32.9144 90.6444L33.6689 89.5232V73.788L34.4233 72.6669L52.8052 64.898L63.8705 60.2161Z"/>
<path d="M77.097 25.0979L52.8052 34.2722V39.4041L64.3735 44.1807L64.4835 44.2281L64.5935 44.2991L65.348 44.7886L65.9374 45.1834V45.9019V59.0948V59.4975L65.7174 59.837L64.9629 60.9581L64.7429 61.2897L64.3814 61.4397L52.8052 66.3427V76.8275L53.3318 77.6881L96.5477 96.9999L103.581 93.7234V78.0197L103.023 77.1591L87.5729 70.2034L87.0071 70.5508V77.0565L86.4491 77.4118L69.804 69.9587L69.2381 69.0981V36.8302L69.804 36.4749L88.846 44.4255V30.0877L77.097 25.0979Z"/>
<path d="M92.3983 23.3058L110.725 17.5186V23.3137L92.3983 23.3058Z"/>
<path d="M140.133 53.2604L132.015 65.6243V24.3164L140.133 36.4672V53.2604Z"/>
<path d="M123.378 40.786C123.464 40.8666 123.532 40.9645 123.578 41.0733C123.624 41.1821 123.647 41.2994 123.645 41.4176V48.5233C123.647 48.6427 123.625 48.7612 123.579 48.8713C123.533 48.9814 123.464 49.0807 123.378 49.1628C123.192 49.336 122.948 49.4321 122.694 49.4321C122.441 49.4321 122.196 49.336 122.011 49.1628C121.919 49.0861 121.845 48.9893 121.796 48.8798C121.747 48.7704 121.724 48.6512 121.728 48.5312V41.4255C121.727 41.3059 121.751 41.1876 121.8 41.0786C121.849 40.9695 121.921 40.8724 122.011 40.7939C122.196 40.6207 122.441 40.5245 122.694 40.5245C122.948 40.5245 123.192 40.6207 123.378 40.7939V40.786ZM130.773 24.3323V65.6244H92.3982V24.3323H130.773ZM102.418 38.3069H96.1784V51.6656H102.418V49.297H98.6461V46.1942H101.428V43.8256H98.6696V40.7307H102.442L102.418 38.3069ZM108.336 44.9546L111.079 38.3147H108.352L107 41.915L105.633 38.3147H102.906L105.656 44.9546L102.913 51.6656H105.57L107 47.939L108.422 51.6656H111.079L108.336 44.9546ZM118.71 41.615C118.727 41.1812 118.658 40.7484 118.507 40.3417C118.356 39.935 118.125 39.5627 117.83 39.2464C117.495 38.922 117.098 38.6694 116.663 38.5038C116.228 38.3383 115.764 38.2632 115.299 38.2832H111.865V51.634H114.332V46.7706H115.299C115.745 46.778 116.188 46.6959 116.603 46.5292C117.017 46.3624 117.394 46.1144 117.712 45.7994C118.034 45.4971 118.29 45.1299 118.462 44.7218C118.634 44.3138 118.718 43.8739 118.71 43.4309V41.615ZM126.207 41.465C126.214 41.0207 126.126 40.5801 125.952 40.172C125.777 39.7638 125.519 39.3973 125.193 39.0964C124.533 38.4741 123.662 38.1278 122.757 38.1278C121.852 38.1278 120.981 38.4741 120.321 39.0964C119.996 39.3973 119.737 39.7638 119.562 40.172C119.388 40.5801 119.301 41.0207 119.307 41.465V48.5154C119.3 48.9591 119.385 49.3993 119.559 49.8074C119.732 50.2155 119.989 50.5823 120.313 50.884C120.634 51.2011 121.015 51.4503 121.433 51.6171C121.852 51.7839 122.299 51.8648 122.749 51.8551C123.656 51.8706 124.532 51.5243 125.185 50.8919C125.512 50.5916 125.772 50.2254 125.948 49.8173C126.124 49.4091 126.213 48.9681 126.207 48.5233V41.465ZM115.346 40.7386H114.332V44.4415H115.346C115.472 44.4454 115.598 44.4236 115.715 44.3774C115.833 44.3313 115.94 44.2618 116.03 44.173C116.117 44.0913 116.187 43.9922 116.234 43.8822C116.281 43.7721 116.306 43.6534 116.305 43.5335V41.6465C116.31 41.5239 116.29 41.4015 116.245 41.2873C116.201 41.173 116.133 41.0695 116.046 40.9833C115.952 40.8968 115.841 40.8305 115.721 40.7884C115.601 40.7464 115.473 40.7294 115.346 40.7386V40.7386Z"/>
<path d="M154.295 31.722H159.395V27.5928H154.295V21.553H161.281V17.4316H150.02V41.8832H154.295V31.722Z"/>
<path d="M168.401 42.128C170.036 42.157 171.617 41.5453 172.81 40.4227C173.401 39.891 173.872 39.2381 174.191 38.5081C174.509 37.778 174.668 36.9878 174.657 36.1908V17.4238H170.217V36.175C170.221 36.4153 170.174 36.6536 170.079 36.8742C169.984 37.0947 169.844 37.2924 169.667 37.4541C169.486 37.6305 169.272 37.7688 169.037 37.861C168.802 37.9532 168.551 37.9974 168.299 37.9909C168.046 37.9967 167.794 37.9522 167.558 37.8601C167.322 37.768 167.107 37.63 166.924 37.4541C166.746 37.2928 166.604 37.0954 166.508 36.8749C166.412 36.6543 166.363 36.4158 166.366 36.175V17.4238H162.169V36.175C162.161 36.9653 162.318 37.7485 162.63 38.4736C162.943 39.1987 163.405 39.8494 163.985 40.3832C165.17 41.528 166.758 42.1553 168.401 42.128V42.128Z"/>
<path d="M179.482 41.8595H183.758V21.553H187.766V17.4316H175.459V21.553H179.482V41.8595Z"/>
<path d="M194.886 42.128C196.52 42.157 198.102 41.5453 199.295 40.4227C199.887 39.8922 200.358 39.2394 200.675 38.5089C200.993 37.7785 201.149 36.9877 201.134 36.1908V17.4238H196.701V36.175C196.705 36.416 196.658 36.655 196.561 36.8758C196.465 37.0965 196.322 37.2938 196.143 37.4541C195.965 37.6313 195.752 37.7704 195.518 37.8626C195.285 37.9549 195.035 37.9986 194.784 37.9909C194.532 37.9978 194.281 37.9539 194.046 37.8617C193.811 37.7694 193.597 37.6308 193.416 37.4541C193.234 37.2956 193.089 37.0988 192.992 36.8778C192.894 36.6568 192.846 36.4169 192.85 36.175V17.4238H188.662V36.175C188.653 36.9653 188.81 37.7485 189.123 38.4736C189.436 39.1987 189.897 39.8494 190.477 40.3832C191.659 41.5275 193.244 42.1549 194.886 42.128V42.128Z"/>
<path d="M206.548 32.8432H208.631L210.926 41.8596H215.531L212.686 31.2484C213.315 30.7077 213.819 30.0353 214.163 29.2784C214.506 28.5215 214.681 27.6983 214.675 26.8665V23.3847C214.762 21.858 214.277 20.3536 213.315 19.1687C212.278 18.016 210.659 17.4238 208.482 17.4238H202.273V41.8596H206.548V32.8432ZM210.478 23.4479V26.9376C210.482 27.1809 210.435 27.4224 210.338 27.6457C210.242 27.869 210.099 28.0691 209.92 28.2324C209.742 28.4119 209.53 28.5528 209.296 28.6466C209.063 28.7403 208.812 28.7847 208.56 28.7772H206.525V21.6083H208.56C209.881 21.6083 210.501 22.1926 210.501 23.4479H210.478Z"/>
<path d="M227.728 37.754H220.742V31.722H225.85V27.5928H220.742V21.553H227.728V17.4316H216.466V41.8832H227.728V37.754Z"/>
<path d="M155.474 46.3125C153.829 46.2835 152.241 46.911 151.057 48.0573C150.469 48.5932 150.002 49.2482 149.685 49.979C149.368 50.7099 149.209 51.4999 149.218 52.2971V65.3874C149.209 66.1804 149.367 66.9663 149.683 67.6931C149.998 68.4199 150.464 69.0711 151.049 69.6035C152.248 70.7205 153.823 71.3412 155.458 71.3412C157.093 71.3412 158.668 70.7205 159.867 69.6035C160.452 69.0712 160.919 68.4202 161.236 67.6935C161.553 66.9668 161.713 66.1808 161.706 65.3874V61.7951H157.289V65.3479C157.292 65.5894 157.243 65.8287 157.145 66.0494C157.047 66.2701 156.903 66.4671 156.723 66.627C156.542 66.8026 156.328 66.9405 156.093 67.0327C155.858 67.1248 155.608 67.1694 155.356 67.1638C155.104 67.1707 154.853 67.1267 154.618 67.0345C154.383 66.9423 154.169 66.8037 153.988 66.627C153.81 66.4657 153.669 66.2683 153.572 66.0477C153.476 65.8272 153.428 65.5887 153.43 65.3479V52.2418C153.428 51.9989 153.477 51.7582 153.573 51.5352C153.669 51.3123 153.811 51.1119 153.988 50.947C154.359 50.599 154.848 50.4055 155.356 50.4055C155.863 50.4055 156.352 50.599 156.723 50.947C156.904 51.1084 157.047 51.3068 157.145 51.5288C157.243 51.7508 157.292 51.9912 157.289 52.2339V55.2894H161.706V52.3129C161.713 51.5186 161.555 50.7315 161.241 50.0026C160.927 49.2736 160.464 48.619 159.882 48.081C159.301 47.508 158.611 47.0566 157.854 46.753C157.098 46.4495 156.288 46.2997 155.474 46.3125Z"/>
<path d="M169.478 46.281C167.843 46.2562 166.265 46.8804 165.085 48.018C164.498 48.5539 164.03 49.2088 163.713 49.9397C163.396 50.6705 163.237 51.4606 163.246 52.2577V65.3244C163.238 66.1186 163.397 66.9057 163.711 67.6346C164.025 68.3636 164.488 69.0182 165.069 69.5562C165.653 70.1253 166.343 70.5726 167.1 70.8721C167.857 71.1716 168.665 71.3174 169.478 71.301C171.121 71.3287 172.708 70.7045 173.895 69.5641C174.482 69.0279 174.949 68.3729 175.266 67.6421C175.583 66.9113 175.743 66.1214 175.734 65.3244V52.2577C175.741 51.4627 175.582 50.675 175.267 49.9458C174.951 49.2167 174.487 48.5625 173.903 48.0259C173.316 47.4566 172.623 47.0094 171.864 46.71C171.104 46.4106 170.294 46.2648 169.478 46.281V46.281ZM167.443 52.1788C167.44 51.9372 167.489 51.698 167.587 51.4773C167.684 51.2566 167.828 51.0596 168.009 50.8997C168.191 50.7234 168.407 50.5852 168.643 50.4931C168.879 50.4009 169.131 50.3567 169.384 50.3629C169.635 50.3566 169.884 50.4009 170.118 50.4931C170.351 50.5853 170.564 50.7235 170.743 50.8997C170.92 51.0614 171.061 51.2591 171.156 51.4796C171.251 51.7002 171.298 51.9385 171.294 52.1788V65.2849C171.297 65.5261 171.249 65.7654 171.155 65.9871C171.06 66.2088 170.92 66.408 170.743 66.5718C170.563 66.7455 170.349 66.8816 170.116 66.9724C169.883 67.0631 169.634 67.1068 169.384 67.1008C168.874 67.1128 168.38 66.9228 168.009 66.5718C167.829 66.4101 167.685 66.2116 167.587 65.9897C167.49 65.7677 167.44 65.5275 167.443 65.2849V52.1788Z"/>
<path d="M186.477 62.7741L183.153 46.5652H177.274V71.0168H181.549V57.808L184.779 71.0168H188.214L191.051 58.0054V71.0168H195.326V46.5652H189.66L186.477 62.7741Z"/>
<path d="M206.069 62.7741L202.753 46.5652H196.874V71.0168H201.149V57.808L204.372 71.0168H207.806L210.643 58.0054V71.0168H214.926V46.5652H209.26L206.069 62.7741Z"/>
<path d="M216.466 71.0168H227.728V66.8954H220.742V60.8556H225.85V56.7264H220.742V50.6865H227.728V46.5652H216.466V71.0168Z"/>
<path d="M242.243 56.0159V52.542C242.331 51.0152 241.846 49.5109 240.884 48.3259C239.847 47.1732 238.228 46.5811 236.051 46.5811H229.842V71.0168H234.117V62.0005H236.2L238.495 71.0168H243.1L240.255 60.4056C240.885 59.8633 241.389 59.1896 241.732 58.4314C242.075 57.6732 242.25 56.8489 242.243 56.0159V56.0159ZM238.07 52.5972V56.0948C238.075 56.3382 238.027 56.5796 237.931 56.8029C237.835 57.0263 237.692 57.2263 237.512 57.3896C237.334 57.5676 237.122 57.7076 236.888 57.8012C236.654 57.8948 236.404 57.9401 236.153 57.9344H234.117V50.7655H236.153C237.457 50.7655 238.07 51.3498 238.07 52.5972Z"/>
<path d="M250.825 46.3125C249.181 46.2835 247.593 46.911 246.409 48.0573C245.821 48.5932 245.353 49.2482 245.036 49.979C244.719 50.7099 244.56 51.4999 244.57 52.2971V65.3874C244.562 66.1801 244.722 66.9654 245.037 67.6919C245.353 68.4184 245.817 69.0698 246.401 69.6035C247.6 70.7205 249.175 71.3412 250.81 71.3412C252.445 71.3412 254.02 70.7205 255.219 69.6035C255.8 69.069 256.262 68.4171 256.575 67.6905C256.888 66.9639 257.044 66.179 257.034 65.3874V61.7951H252.617V65.3479C252.622 65.5898 252.574 65.8297 252.476 66.0507C252.378 66.2717 252.233 66.4685 252.051 66.627C251.87 66.8026 251.656 66.9405 251.421 67.0327C251.186 67.1248 250.936 67.1694 250.684 67.1638C250.432 67.1707 250.181 67.1267 249.946 67.0345C249.711 66.9423 249.497 66.8037 249.316 66.627C249.14 66.4653 248.999 66.2676 248.904 66.0471C248.809 65.8265 248.762 65.5882 248.766 65.3479V52.2418C248.763 51.9994 248.81 51.7589 248.905 51.5359C249 51.3129 249.14 51.1123 249.316 50.947C249.688 50.599 250.176 50.4055 250.684 50.4055C251.192 50.4055 251.68 50.599 252.051 50.947C252.233 51.107 252.378 51.3052 252.476 51.5275C252.574 51.7498 252.622 51.9909 252.617 52.2339V55.2894H257.034V52.3129C257.041 51.5194 256.883 50.7331 256.571 50.0044C256.258 49.2757 255.798 48.6206 255.219 48.081C254.045 46.9304 252.465 46.2944 250.825 46.3125V46.3125Z"/>
<path d="M269.867 50.6865V46.5652H258.598V71.0168H269.867V66.8954H262.873V60.8556H267.981V56.7264H262.873V50.6865H269.867Z"/>
<path d="M159.584 86.7046C161.185 88.8189 163.265 90.5187 165.651 91.6629C165.091 92.2222 164.598 92.8448 164.181 93.5182C162.029 92.2612 160.157 90.5736 158.68 88.56V94.292H156.44V88.6706C154.937 90.6232 153.068 92.2619 150.939 93.4946C150.511 92.8206 150.007 92.1981 149.438 91.6392C151.837 90.5051 153.931 88.8103 155.544 86.6967H150.043V84.5729H156.44V82.2675H151.261V80.1358H156.44V77.4514H158.601V80.1358H163.938V82.2675H158.601V84.5729H165.164V86.7046H159.584Z"/>
<path d="M181.094 88.0862C180.39 87.3237 179.639 86.6065 178.846 85.9387C178.504 86.5545 178.087 87.1247 177.604 87.6362C177.287 87.3503 176.951 87.0866 176.598 86.8467C178.24 88.9697 180.408 90.6224 182.885 91.6391C182.313 92.2271 181.81 92.8787 181.384 93.5813C179.238 92.5032 177.359 90.9577 175.883 89.0573V94.2366H173.769V89.2074C172.274 91.0705 170.398 92.5891 168.268 93.6603C167.849 92.9927 167.361 92.3709 166.814 91.8049C169.673 90.6115 172.101 88.5671 173.769 85.9466V81.7621H167.6V79.6699H173.785V77.4355H175.899V79.6699H182.375V81.7621H175.915V85.7966L176.166 86.2151C177.286 85.01 178.027 83.4993 178.296 81.8727L180.261 82.2516C180.109 82.906 179.915 83.5496 179.679 84.1781C180.685 84.9676 181.879 85.9782 182.524 86.6098L181.094 88.0862ZM172.299 82.2832C172.135 82.9505 171.931 83.6071 171.686 84.2491C172.315 84.8255 172.999 85.4571 173.392 85.9071L172.009 87.3678C171.741 87.0046 171.294 86.5782 170.838 86.0493C170.306 87.008 169.621 87.8722 168.81 88.6073C168.334 88.083 167.807 87.607 167.238 87.1862C168.853 85.84 169.941 83.9634 170.311 81.8885L172.299 82.2832Z"/>
<path d="M199.908 80.9648H194.949L196.521 81.3122C196.183 81.9596 195.805 82.5912 195.467 83.1517H199.13V92.2707C199.13 93.2182 198.91 93.6366 198.273 93.8893C197.331 94.1433 196.353 94.2341 195.381 94.1577C195.275 93.6083 195.093 93.0767 194.839 92.5787C195.625 92.5787 196.623 92.5787 196.882 92.5787C197.141 92.5787 197.251 92.4839 197.251 92.2155V84.8492H194.611V85.315C194.611 85.6545 194.65 85.8203 194.941 85.8203H195.735C196.068 85.82 196.4 85.7829 196.725 85.7098C196.737 86.188 196.776 86.6652 196.843 87.1388C196.492 87.2316 196.129 87.2742 195.766 87.2652H194.399C193.023 87.2652 192.827 86.5783 192.827 85.2993V84.8492H191.617C191.567 85.4813 191.329 86.0836 190.933 86.5778C190.538 87.0721 190.004 87.4354 189.4 87.6205H195.57V92.0181H190.642V92.7603H188.96V87.7863L188.308 87.9442C188.133 87.453 187.867 87 187.522 86.6099V94.1814H185.581V83.1281H189.094C188.862 82.5126 188.6 81.9091 188.308 81.32L189.432 80.9411H184.732V79.141H191.444C191.342 78.6751 191.192 78.2014 191.059 77.7909L193.015 77.2698C193.22 77.8461 193.456 78.5488 193.613 79.141H199.9L199.908 80.9648ZM187.499 86.4914C189.07 86.2072 189.628 85.7019 189.856 84.8571H187.499V86.4914ZM193.566 83.1281C193.922 82.4255 194.219 81.6939 194.454 80.9411H190.155C190.461 81.5411 190.823 82.2438 191.011 82.7096L189.919 83.1281H193.566ZM190.634 89.1048V90.5496H193.943V89.1048H190.634Z"/>
<path d="M216.38 81.0199C215.996 81.9968 215.428 82.8897 214.706 83.649C215.699 84.1546 216.757 84.5186 217.85 84.7307C217.346 85.2749 216.916 85.8827 216.569 86.5387C215.333 86.2052 214.16 85.6719 213.095 84.9596C211.98 85.6623 210.767 86.1945 209.496 86.5387C209.374 86.2829 209.232 86.0373 209.071 85.8044C208.869 86.818 208.577 87.8114 208.199 88.773L206.871 88.0941C207.059 87.423 207.264 86.515 207.437 85.5834H206.533V91.9469C206.533 92.9181 206.376 93.4628 205.802 93.7865C205.041 94.1006 204.216 94.2252 203.397 94.1497C203.283 93.4586 203.082 92.7849 202.8 92.1443C203.444 92.1838 204.128 92.1838 204.372 92.1443C204.615 92.1048 204.647 92.089 204.647 91.8917V88.0151C204.151 89.2475 203.44 90.3811 202.548 91.3627C202.298 90.6443 201.979 89.9517 201.597 89.2941C202.641 88.2218 203.464 86.9526 204.018 85.5597H201.904V83.6885H205.833C204.785 83.0192 203.687 82.4332 202.548 81.9358L203.79 80.5857C204.214 80.7515 204.694 80.9489 205.173 81.1857C205.568 80.8189 205.939 80.4259 206.281 80.0093H202.155V78.2092H207.657L207.971 78.1381L209.26 78.9987C208.595 80.1497 207.742 81.18 206.737 82.0463C207.216 82.3226 207.625 82.5911 207.947 82.8358L207.161 83.7596H207.947L208.215 83.6648L209.425 84.0991L209.346 84.5333C210.082 84.3225 210.795 84.0395 211.476 83.6885C211.012 83.2305 210.593 82.7281 210.226 82.1884C209.964 82.492 209.68 82.777 209.378 83.0411C208.889 82.5776 208.363 82.1551 207.806 81.7779C209.256 80.6473 210.395 79.1635 211.114 77.467L212.985 78.0118C212.801 78.4426 212.591 78.8618 212.356 79.2672H217.433V81.0357L216.38 81.0199ZM215.138 87.494H217.182C217.182 87.494 217.182 88.0546 217.111 88.2835C216.844 91.4022 216.537 92.7917 216.042 93.3523C215.697 93.7177 215.229 93.9402 214.73 93.976C214.094 94.0285 213.457 94.0417 212.82 94.0155C212.765 93.3411 212.573 92.6853 212.254 92.089C212.776 92.1457 213.301 92.1747 213.826 92.1759C213.929 92.1871 214.033 92.1753 214.131 92.1411C214.229 92.107 214.318 92.0514 214.392 91.9785C214.627 91.7259 214.855 90.9521 215.044 89.2547H213.024C212.752 90.4098 212.199 91.4791 211.415 92.3665C210.63 93.2539 209.639 93.9318 208.529 94.3392C208.227 93.7022 207.817 93.1225 207.319 92.6259C208.141 92.3883 208.897 91.9592 209.523 91.3735C210.15 90.7878 210.631 90.0619 210.926 89.2547H208.867V87.494H211.35C211.437 86.9554 211.494 86.4124 211.523 85.8676H213.535C213.488 86.4282 213.433 86.965 213.362 87.494H215.123H215.138ZM211.578 81.0436C211.979 81.6392 212.467 82.1714 213.024 82.6226C213.486 82.1652 213.867 81.631 214.148 81.0436H211.578Z"/>
<path d="M234.903 89.981C234.196 90.4831 233.462 90.9444 232.703 91.3627C233.627 91.9024 234.637 92.2765 235.689 92.468C235.22 93.0082 234.824 93.6081 234.51 94.2524C233.173 93.9462 231.931 93.3165 230.891 92.4179C229.852 91.5194 229.046 90.3793 228.545 89.0968H226.809V91.9075L229.669 91.3311C229.565 91.9151 229.507 92.5065 229.496 93.0997C225.748 93.9602 225.15 94.1103 224.781 94.355C224.618 93.7451 224.372 93.1606 224.05 92.618C224.323 92.4347 224.545 92.1852 224.696 91.8926C224.847 91.6 224.922 91.2738 224.915 90.9443V89.0731H223.5V87.273H225.991V86.0255H223.862V84.2412H225.991V83.0016H223.5V83.5464C223.5 86.7045 223.225 91.3627 221.441 94.3234C220.886 93.882 220.279 93.5108 219.633 93.2181C221.323 90.4469 221.457 86.4124 221.457 83.5464V78.2092H234.558V83.0253H232.278V84.2649H234.73V86.0492H232.278V87.2967H235.461V89.0731H233.677L234.903 89.981ZM223.516 81.1778H232.53V79.9857H223.516V81.1778ZM227.862 84.2412H230.4V83.0016H227.862V84.2412ZM227.862 87.273H230.4V86.0255H227.862V87.273ZM230.455 89.0731C230.71 89.517 231.025 89.9234 231.39 90.2811C231.98 89.9097 232.55 89.5065 233.096 89.0731H230.455Z"/>
</g>
<defs>
<clipPath id="clip0_132_1245">
<rect width="256.867" height="82" fill="white" transform="translate(13 15)"/>
</clipPath>
</defs>
</svg>
