<svg width="218" height="112" viewBox="0 0 218 112" fill="none" xmlns="http://www.w3.org/2000/svg">
<g clip-path="url(#clip0_132_1244)">
<path d="M34.0271 66.8204L33.8425 65.798L31.6602 53.5241L31.4699 52.4575L30.3955 52.7062L27.3795 53.4025L26.4226 53.6291L26.5905 54.5852L28.7616 66.6602L28.9407 67.6604L29.9591 67.4891L32.9919 66.9862L34.0271 66.8204Z" fill="#6B7280"/>
<path d="M54.7423 69.4123V55.6297H69.7332H70.7739V54.6018V51.6673V50.6394H69.7332H35.247H34.2062V51.6673V54.6018V55.6297H35.247H49.5719V69.4123H32.964H31.9232V70.4402V73.5902V74.6126H32.964H71.7308H72.7716V73.5902V70.4402V69.4123H71.7308H54.7423Z" fill="#6B7280"/>
<path d="M100.33 63.4384L99.933 62.5653L98.7075 59.8684L98.2991 58.9732L97.3758 59.3379L90.6889 61.9629V44.1682H98.6012V39.1945H90.6889V23.5108H99.0825V18.5371H77.2593V23.5108H85.4962V39.1834H77.2593V44.1571H85.4962V63.665L77.8301 65.8203L76.7109 66.1353L77.1698 67.2074L78.3505 69.9705L78.6974 70.7829L79.5647 70.5618C88.8871 68.1579 95.602 65.9474 99.4742 63.8916L100.33 63.4384Z" fill="#6B7280"/>
<path d="M30.2109 50.0371L30.5074 50.96L31.4587 50.7168L34.3796 49.9763L35.4037 49.7166L35.1183 48.7053C34.5587 46.6163 33.1318 42.9745 30.7257 37.2492L30.3508 36.3539L29.4219 36.6745L26.5121 37.6803L25.4601 38.0395L25.9022 39.0508L27.469 42.6484L19.2601 43.4553C24.6711 37.1276 28.2804 31.0597 29.9758 25.3897L30.278 24.3895L29.2596 24.1076L26.3275 23.3008L25.3762 23.0355L25.0628 23.9639C23.9717 27.0785 22.546 30.0687 20.8101 32.8834L17.3576 29.8439C19.3562 26.357 21.137 22.7526 22.6903 19.051L23.0484 18.1558L22.1643 17.7468L19.4224 16.4758L18.4264 16.0171L18.0179 17.0229C16.68 20.3597 15.1537 23.6198 13.4462 26.7879L11.1072 25.2847L10.2231 24.7321L9.66353 25.6163L8.07995 28.1087L7.52039 28.9984L8.43808 29.551C11.9257 31.6711 15.1421 34.1982 18.0179 37.0779C16.1321 39.6255 14.2296 41.9852 12.232 44.2621L9.10396 44.5218L7.8953 44.6213L8.18068 45.7818L8.88573 48.6445L9.09837 49.5121L9.98808 49.3684L19.1874 48.4731V76.5026H24.341V48.031L29.3771 47.5116L30.2109 50.0371Z" fill="#6B7280"/>
<path d="M208.982 69.7107C194.231 57.9617 185.692 47.4728 182.066 36.6578C180.664 32.7387 179.813 28.6478 179.537 24.4999V23.9473C179.537 23.9915 179.66 21.057 179.66 21.057V15.4202H173.449V21.1841C173.449 38.5644 168.53 51.5788 158.419 60.9736C154.871 64.4994 150.451 66.8591 145.459 69.3736L144.34 69.9262L145.14 70.9099L147.591 73.9383L148.151 74.6457L148.934 74.176C158.727 68.3236 164.703 63.3278 168.917 57.4754C172.54 52.2861 175.316 46.5666 177.142 40.5262C180.27 48.987 186.095 57.2267 195.171 66.1296L195.199 66.1573H195.227L204.298 73.8278L204.942 74.3804L205.613 73.872L208.97 71.3133L210.011 70.5175L208.982 69.7107Z" fill="#6B7280"/>
<path d="M69.1232 26.8598L68.1943 26.4564L65.3965 25.2351L64.2774 24.7488L63.9584 25.9038C63.1069 29.2536 61.5743 32.3973 59.4539 35.1438C59.1023 35.5346 58.9132 36.0422 58.9247 36.5649C58.9361 37.0876 59.1471 37.5867 59.5154 37.9622C61.418 40.0733 63.3876 43.2619 65.5252 47.683L66.0232 48.7164L67.008 48.114L69.6436 46.5059L70.4941 45.9864L70.0017 45.1243C67.5956 40.9354 65.6371 37.9401 64.3053 36.4646C66.0443 33.7075 67.5294 30.8019 68.7427 27.7827L69.1232 26.8598Z" fill="#6B7280"/>
<path d="M13.0825 52.7726L11.9634 52.5515L11.8179 53.6568C11.2583 57.9563 9.75867 63.5544 7.34134 70.2965L6.96643 71.341L8.05199 71.6284L11.0345 72.4241L11.9522 72.6728L12.2767 71.7886C14.8116 64.9415 16.3336 59.2991 16.9379 54.5355L17.0554 53.596L16.1154 53.4026L13.0825 52.7726Z" fill="#6B7280"/>
<path d="M70.2312 23.4887H71.2664V22.4608V19.5595V18.5371H70.2312H33.1934H32.1526V19.5595V22.4608V23.4887H33.1934H70.2312Z" fill="#6B7280"/>
<path d="M47.3784 39.0951C49.0012 40.8966 50.9484 43.9416 53.03 47.9372L53.556 48.9485L54.5241 48.324L57.0701 46.6661L57.9095 46.1135L57.3891 45.2624C54.9326 41.2558 52.8846 38.3324 51.273 36.5419C53.2519 33.8365 55.05 31.0065 56.656 28.0701L57.1652 27.1858L56.2755 26.6774L53.6344 25.1743L52.616 24.594L52.1571 25.6606C50.7559 29.0457 48.8325 32.1962 46.4551 35L46.4999 34.9503C45.0898 36.3761 46.6901 38.2827 47.3784 39.0951Z" fill="#6B7280"/>
<path d="M44.2169 26.9757L43.2992 26.5336L40.5685 25.2184L39.5165 24.71L39.1304 25.8152C38.0055 29.248 36.2864 32.4622 34.0495 35.315C32.8968 36.68 34.43 38.6971 35.0064 39.4542C36.9081 42.2356 38.4973 45.2135 39.7459 48.335L40.1992 49.4402L41.2288 48.8489L43.8867 47.3126L44.7317 46.8207L44.2896 45.9586C42.1185 41.7476 40.3223 38.7744 38.789 36.8292C40.7004 33.9988 42.3717 31.0174 43.786 27.9152L44.2169 26.9757Z" fill="#6B7280"/>
<path d="M138.829 14L128.197 23.8313L122.775 19.3163L122.036 18.7029H100.772V29.5345L98.4614 31.5461L100.772 33.6405V50.7721H115.987V56.2984H99.5805V61.2721H115.993V69.3516H96.4077V74.5518H140.86V69.3516H121.163V61.3329H138.51V56.3592H121.163V50.8329H137.39V31.4687L136.45 30.6895L132.629 27.5008L142.046 16.4868L138.829 14ZM120.889 24.5608L124.325 27.4179L120.889 30.6453V24.5608ZM106.049 45.5608V38.4263L113.928 45.5718L106.049 45.5608ZM106.049 28.4789V23.9032H116.004V35.8842L115.679 35.6797L106.049 28.4789ZM132.097 45.5608H117.033L122.584 39.0839H132.097V45.5608ZM132.097 34.1932H126.871L129.198 31.4687L132.097 33.8782V34.1932Z" fill="#6B7280"/>
<path d="M189.178 69.0311H190.454V68.4895H190.326H187.203V69.0311H188.608V71.0371H187.013V71.5842H188.608V74.4635H189.178V71.5842H190.701V71.0371H189.178V69.0311Z" fill="#6B7280"/>
<path d="M185.491 68.4729H180.869C180.84 68.4714 180.811 68.4758 180.784 68.4856C180.757 68.4955 180.732 68.5108 180.711 68.5304C180.69 68.5501 180.674 68.5737 180.662 68.5999C180.651 68.6262 180.645 68.6544 180.645 68.6829V71.3908C180.596 72.3114 180.346 73.2106 179.912 74.0269L179.867 74.154L180.427 74.3308L180.477 74.2314C180.776 73.6249 180.993 72.9819 181.121 72.3193H185.133V73.6843C185.133 73.6843 185.133 73.734 185.133 73.7506C185.133 73.7672 184.814 73.8611 183.812 73.6401L183.661 73.6069V74.1982H183.756C184.124 74.2829 184.498 74.3329 184.875 74.3474C185.121 74.3578 185.362 74.2836 185.558 74.1374C185.608 74.0885 185.648 74.0299 185.674 73.9652C185.7 73.9005 185.712 73.8312 185.709 73.7616V68.7106C185.711 68.6508 185.689 68.5928 185.648 68.5485C185.608 68.5043 185.551 68.4772 185.491 68.4729V68.4729ZM185.144 71.7887H181.227C181.227 71.7003 181.227 71.5732 181.227 71.5732V70.689H185.144V71.7887ZM185.144 70.1308H181.227V69.0256H185.144V70.1308Z" fill="#6B7280"/>
<path d="M191.562 68.4729H191.439H190.98V73.0653H191.562V68.4729Z" fill="#6B7280"/>
<path d="M193.112 68.1965H192.665V73.7615C192.513 73.8389 192.161 73.8776 191.338 73.6731L191.176 73.6234V74.176H191.277C192.139 74.4081 192.704 74.4081 193.028 74.176C193.099 74.1352 193.157 74.0772 193.199 74.0075C193.24 73.9378 193.262 73.8588 193.263 73.7781V68.1965H193.112Z" fill="#6B7280"/>
<path d="M10.2903 93.2252H11.5269V83.3607H10.2903V83.0789H14.4255L16.2664 89.3733L18.1018 83.0789H22.058V83.3828H20.8045V93.2473H22.058V93.5402H17.0666V93.2473H18.32V83.3773L15.304 93.5181H14.9459L11.8291 83.3939V93.2252H13.0881V93.5181H10.2903V93.2252Z" fill="#6B7280"/>
<path d="M25.4266 86.2842L26.7359 90.1084H24.078L25.4266 86.2842ZM21.476 93.5182H24.5033V93.2253H22.998L23.9885 90.4179H26.8535L27.7879 93.2253H26.4786V93.5182H31.4307V93.2253H30.5298L26.8535 82.9795H26.2939L22.6903 93.2253H21.504L21.476 93.5182Z" fill="#6B7280"/>
<path d="M31.0558 93.2252H32.2925V83.3607H31.0558V83.0789H35.1127L39.2367 89.7104V83.3607H37.9665V83.0789H40.8035V83.3828H39.5445V93.5402H38.6212L32.5946 83.8415V93.2362H33.8537V93.5291H31.0558V93.2252Z" fill="#6B7280"/>
<path d="M43.3048 86.2842L44.6197 90.1084H41.9618L43.3048 86.2842ZM39.3878 93.5182H42.4151V93.2253H40.9098L41.9002 90.4179H44.7652L45.6997 93.2253H44.3847V93.5182H49.3425V93.2253H48.4472L44.7652 82.9795H44.2057L40.6021 93.2253H39.4158L39.3878 93.5182Z" fill="#6B7280"/>
<path d="M56.6001 83.0126H56.8799L57.031 86.0355H56.7344C56.6297 85.6572 56.495 85.2876 56.3315 84.9302C56.1127 84.5442 55.8519 84.1828 55.5537 83.8526C55.3024 83.5813 54.9904 83.3716 54.6427 83.2402C54.2949 83.1088 53.921 83.0592 53.5505 83.0955C53.1183 83.0871 52.6916 83.192 52.3138 83.3994C51.9139 83.6322 51.6016 83.9872 51.4241 84.4108C51.2115 84.886 51.0995 86.1737 51.0995 88.2792C51.0995 89.3845 51.1275 90.1913 51.1891 90.7771C51.2514 91.3778 51.3905 91.9683 51.6031 92.5345C51.8158 93.1313 52.3809 93.4297 53.2819 93.4297C53.4924 93.4468 53.7041 93.4136 53.8989 93.3328C54.0937 93.252 54.2659 93.126 54.401 92.9655C54.6809 92.5256 54.8085 92.0078 54.7647 91.49V89.3845H53.5448V89.0916H58.4635V89.3845H57.3443V91.49C57.2268 91.6613 57.1149 91.8105 57.003 91.9431C56.8911 92.0758 56.7064 92.2858 56.4434 92.5731C56.0882 92.9255 55.6554 93.1921 55.1788 93.3524C54.5871 93.5811 53.9564 93.6956 53.321 93.6895C52.6124 93.7205 51.9067 93.5813 51.2644 93.2839C50.6222 92.9865 50.0625 92.5397 49.6335 91.9818C48.7856 90.9393 48.3201 89.644 48.3129 88.3068C48.281 86.8794 48.8059 85.4944 49.779 84.4384C50.2193 83.936 50.7654 83.5348 51.3792 83.2627C51.9929 82.9906 52.6595 82.8544 53.3322 82.8634C53.7842 82.8535 54.2351 82.9113 54.6696 83.0347C55.1405 83.2112 55.5862 83.4471 55.9958 83.7366L56.6001 83.0126Z" fill="#6B7280"/>
<path d="M58.1949 93.2252H59.4763V83.3607H58.1949V83.0789H66.5044L66.6611 85.9415H66.359C66.2236 85.3156 65.9609 84.7233 65.5867 84.2007C65.399 83.9361 65.1468 83.7224 64.8534 83.5795C64.56 83.4365 64.2349 83.3689 63.908 83.3828H61.9887V88.1244H62.2237C62.358 88.1244 62.4923 88.1244 62.6154 88.1244C62.8054 88.1105 62.9931 88.0753 63.175 88.0194C63.4377 87.9458 63.662 87.7758 63.8017 87.5441C63.933 87.3788 64.0335 87.1916 64.0983 86.9915C64.1721 86.6864 64.2208 86.3759 64.2438 86.0631H64.5404V90.5504H64.2382C64.2127 90.2565 64.166 89.9647 64.0983 89.6773C64.0071 89.4045 63.8771 89.1458 63.7122 88.9091C63.5107 88.5941 63.0519 88.4394 62.3413 88.4394H61.9887V93.2804H63.9472C64.3261 93.2688 64.6958 93.1623 65.0216 92.971C65.3753 92.7883 65.6861 92.5341 65.9337 92.2249C66.1317 91.9796 66.2972 91.7103 66.4261 91.4236C66.5773 91.0532 66.6952 90.6704 66.7786 90.2796H67.0248L66.8905 93.5954H58.1949V93.2252Z" fill="#6B7280"/>
<path d="M70.925 83.3608H72.3631C72.5823 83.348 72.8011 83.3923 72.9975 83.4893C73.1939 83.5863 73.3611 83.7326 73.4822 83.9134C73.7677 84.46 73.8936 85.0742 73.8459 85.6874C73.8942 86.269 73.751 86.8505 73.4375 87.3453C73.2648 87.5298 73.0511 87.6723 72.8132 87.7614C72.5753 87.8506 72.3197 87.8841 72.0665 87.8592H70.9474L70.925 83.3608ZM67.1759 93.5182H72.212V93.2252H70.925V88.1521H71.8595C72.0792 88.1429 72.2982 88.1823 72.5005 88.2674C72.7029 88.3525 72.8834 88.4812 73.029 88.6439C73.3397 89.0261 73.4953 89.5087 73.4654 89.9979L73.5438 91.2855C73.5229 91.6026 73.5688 91.9205 73.6786 92.2192C73.7884 92.5178 73.9597 92.7908 74.1817 93.0208C74.6737 93.4454 75.3142 93.6635 75.9667 93.6287C76.1996 93.6277 76.4318 93.6055 76.6606 93.5624C76.9343 93.4944 77.2034 93.4095 77.4664 93.3081L77.3768 93.0539C77.2312 93.1454 77.0668 93.2039 76.8956 93.2252C76.7776 93.2339 76.6599 93.2054 76.5594 93.1438C76.4589 93.0823 76.3807 92.9908 76.336 92.8826C76.2134 92.4742 76.1642 92.0478 76.1905 91.6226C76.1936 91.1639 76.1352 90.7068 76.0171 90.2631C75.9266 89.9085 75.771 89.5732 75.5582 89.2739C75.3842 89.0108 75.1599 88.7837 74.8979 88.6053C74.6817 88.4634 74.4436 88.357 74.1929 88.2902C73.9467 88.2239 73.5941 88.1576 73.1521 88.0858C73.5131 88.0265 73.87 87.9452 74.2209 87.8426C74.5106 87.7515 74.7915 87.6349 75.0602 87.4945C75.4612 87.3007 75.8044 87.0074 76.0562 86.6434C76.2745 86.2738 76.3795 85.8495 76.3584 85.4221C76.3713 85.0778 76.2954 84.7359 76.1378 84.4285C75.9802 84.1211 75.7461 83.8583 75.4575 83.6647C74.7083 83.2082 73.8351 82.9901 72.9562 83.0403H67.1759V83.3442H68.4517V93.2087H67.1759V93.5182Z" fill="#6B7280"/>
<path d="M80.4936 87.2403C80.8601 87.0388 81.2067 86.8038 81.5288 86.5385C81.7582 86.3285 81.9373 86.1627 82.0884 86.03C82.2224 85.8985 82.3494 85.7601 82.4689 85.6156C82.592 85.4719 82.7095 85.3171 82.8214 85.1569C82.9333 84.9966 83.062 84.7866 83.2131 84.5435H83.5097V87.2458H84.7687V87.5442H83.5097V92.0095C83.5097 92.6174 83.7167 92.9213 84.1308 92.9213C84.5057 92.9213 84.8191 92.6063 85.0765 91.9542L85.3451 92.0371C85.2544 92.3151 85.1285 92.5807 84.9702 92.8274C84.797 93.0329 84.5839 93.202 84.3435 93.3248C83.9482 93.5062 83.5141 93.5896 83.0788 93.5679C81.9261 93.5679 81.3498 93.1148 81.3498 92.2084V87.5442H80.4936V87.2403Z" fill="#6B7280"/>
<path d="M87.3036 90.009C87.2547 89.2632 87.3399 88.5148 87.5554 87.7985C87.6446 87.6146 87.7894 87.4627 87.9699 87.3637C88.1503 87.2647 88.3574 87.2235 88.5626 87.2458C89.0327 87.2458 89.3236 87.4061 89.4299 87.7156C89.548 88.0358 89.6214 88.3705 89.6482 88.7103C89.6482 89.0529 89.6873 89.5503 89.6873 90.2024C89.6873 90.8545 89.6873 91.3077 89.637 91.7387C89.6136 92.1141 89.544 92.4852 89.4299 92.844C89.3348 93.159 89.0159 93.3137 88.4787 93.3137C87.9415 93.3137 87.6393 93.159 87.5386 92.8495C87.4388 92.539 87.375 92.2182 87.3484 91.8935C87.3484 91.5619 87.3036 91.0203 87.3036 90.2632V90.009ZM86.0446 87.9532C85.726 88.2535 85.4724 88.6146 85.2991 89.0145C85.1258 89.4144 85.0365 89.8448 85.0365 90.2798C85.0365 90.7147 85.1258 91.1452 85.2991 91.5451C85.4724 91.945 85.726 92.306 86.0446 92.6064C86.3665 92.9197 86.7487 93.1663 87.1687 93.3314C87.5887 93.4966 88.0379 93.577 88.4899 93.5679C88.9424 93.5753 89.392 93.4941 89.8126 93.3291C90.2333 93.164 90.6167 92.9184 90.9408 92.6064C91.2605 92.3078 91.5152 91.948 91.6892 91.5489C91.8633 91.1498 91.9531 90.7198 91.9531 90.2853C91.9531 89.8508 91.8633 89.4208 91.6892 89.0217C91.5152 88.6226 91.2605 88.2628 90.9408 87.9642C90.6231 87.6529 90.2456 87.4075 89.8304 87.2424C89.4153 87.0772 88.9709 86.9957 88.5234 87.0027C87.6026 86.9842 86.7116 87.3258 86.0446 87.9532V87.9532Z" fill="#6B7280"/>
<path d="M97.0792 91.6723C97.0272 91.8735 96.9521 92.0682 96.8554 92.2526C96.7417 92.4983 96.5734 92.7155 96.3629 92.8881C96.1818 93.0554 95.945 93.1517 95.6971 93.1589C95.5827 93.1639 95.4687 93.1419 95.3646 93.0949C95.2605 93.0478 95.1692 92.9769 95.0983 92.8881C94.9655 92.7269 94.8717 92.5379 94.8241 92.3355C94.7736 92.0733 94.7529 91.8064 94.7626 91.5397V89.2684C94.7626 89.191 94.7626 89.0805 94.7626 88.9423C94.7666 88.7713 94.7872 88.601 94.8241 88.4339C94.8895 88.1957 95.0168 87.9785 95.1935 87.8039C95.2642 87.7256 95.3503 87.6623 95.4464 87.6176C95.5426 87.573 95.6468 87.548 95.753 87.5441C95.8854 87.5531 96.0145 87.5892 96.132 87.6501C96.2495 87.711 96.353 87.7954 96.4357 87.8978C96.6482 88.1247 96.8221 88.3841 96.9505 88.666C97.0598 88.9099 97.1188 89.173 97.124 89.4397V91.2081C97.1265 91.364 97.1115 91.5197 97.0792 91.6723V91.6723ZM97.124 88.2018C96.8993 87.8555 96.613 87.5522 96.279 87.3065C95.9761 87.1358 95.6317 87.0498 95.283 87.0578C94.8893 87.0599 94.5012 87.1505 94.1483 87.3229C93.7953 87.4953 93.4868 87.7448 93.2462 88.0526C92.6767 88.7254 92.3744 89.5798 92.3956 90.4565C92.3689 91.2709 92.6639 92.0636 93.2182 92.6671C93.4621 92.9511 93.7668 93.1783 94.1103 93.3321C94.4538 93.486 94.8275 93.5627 95.2047 93.5568C95.9769 93.5568 96.4637 93.4186 96.6539 93.1423C96.8442 92.866 96.9841 92.6726 97.0512 92.5897C97.1068 92.4986 97.1573 92.4045 97.2023 92.3078V93.4131H100.23V93.1202H99.2671V82.9297H96.1615V83.2281H97.1408L97.124 88.2018Z" fill="#6B7280"/>
<path d="M104.141 91.5288C104.147 91.8439 104.049 92.1524 103.861 92.4074C103.792 92.5168 103.697 92.6074 103.583 92.6711C103.47 92.7348 103.342 92.7695 103.212 92.7722C103.096 92.7725 102.983 92.7411 102.884 92.6816C102.785 92.6221 102.705 92.5368 102.653 92.4351C102.499 92.1461 102.427 91.8215 102.445 91.4956C102.425 91.2032 102.502 90.9124 102.664 90.6666C102.804 90.4812 103 90.344 103.223 90.2743C103.523 90.1619 103.843 90.1093 104.163 90.1195L104.141 91.5288ZM104.141 89.8709L103.71 89.904C103.151 89.9924 102.776 90.0532 102.518 90.1085C102.208 90.1774 101.905 90.2736 101.612 90.3958C101.32 90.4951 101.052 90.6511 100.823 90.8545C100.654 91.0057 100.525 91.1955 100.448 91.4072C100.372 91.5993 100.332 91.8034 100.33 92.0095C100.325 92.2172 100.365 92.4237 100.448 92.6145C100.531 92.8054 100.655 92.9761 100.812 93.1148C101.154 93.4154 101.602 93.5721 102.059 93.5514C102.478 93.5527 102.889 93.4378 103.246 93.2198C103.602 93.0139 103.908 92.7327 104.141 92.3964C104.225 92.7449 104.422 93.057 104.701 93.2861C104.998 93.4808 105.352 93.5739 105.708 93.5514C105.94 93.5661 106.173 93.5329 106.392 93.454C106.61 93.375 106.81 93.252 106.978 93.0927L107.202 92.7888L107.084 92.5898C106.96 92.732 106.786 92.8228 106.597 92.844C106.407 92.844 106.312 92.7445 106.312 92.5401V88.5003C106.312 87.5719 105.434 87.0911 103.677 87.0911C102.932 87.0551 102.191 87.2073 101.522 87.5332C101.291 87.6351 101.094 87.7999 100.954 88.0084C100.815 88.2168 100.738 88.4604 100.733 88.7103C100.731 88.8282 100.755 88.9452 100.803 89.053C100.852 89.1608 100.923 89.257 101.013 89.3348C101.214 89.5028 101.471 89.5913 101.735 89.5835C102.006 89.5893 102.269 89.4902 102.468 89.3072C102.562 89.2223 102.637 89.119 102.688 89.0038C102.739 88.8887 102.765 88.7642 102.764 88.6385C102.77 88.4684 102.71 88.3025 102.597 88.1743C102.523 88.1063 102.462 88.0258 102.418 87.9366L102.384 87.8538C102.384 87.7266 102.485 87.6161 102.664 87.5166C102.874 87.422 103.104 87.3748 103.335 87.3785C103.451 87.3656 103.568 87.3783 103.679 87.4156C103.789 87.4528 103.889 87.5138 103.973 87.594C104.114 87.8166 104.177 88.0787 104.152 88.3401L104.141 89.8709Z" fill="#6B7280"/>
<path d="M106.446 87.2458H110.492V87.5443H109.535L111.124 91.1143L112.529 87.5443H111.27V87.2458H113.754V87.5443H112.848L109.3 96.3422C108.841 97.4474 108.287 98.0001 107.621 98.0001C107.484 98.0045 107.347 97.9813 107.219 97.9319C107.092 97.8825 106.975 97.8079 106.877 97.7127C106.78 97.6237 106.703 97.5149 106.651 97.3938C106.6 97.2726 106.576 97.142 106.581 97.0108C106.583 96.7449 106.691 96.4905 106.883 96.3035C106.972 96.2029 107.081 96.122 107.203 96.0658C107.325 96.0096 107.459 95.9795 107.594 95.9774C107.735 95.9701 107.876 96.0006 108.002 96.0658C108.113 96.1445 108.21 96.2417 108.287 96.3532L108.472 96.5798L108.567 96.6406C108.651 96.6406 108.724 96.5853 108.813 96.4748C108.918 96.3235 108.999 96.1577 109.054 95.983L110.005 93.5348L107.146 87.5443H106.424L106.446 87.2458Z" fill="#6B7280"/>
</g>
<defs>
<clipPath id="clip0_132_1244">
<rect width="203" height="84" fill="white" transform="translate(7 14)"/>
</clipPath>
</defs>
</svg>
